<svg height='300px' width='300px'  fill="#000000" xmlns="http://www.w3.org/2000/svg" xmlns:xlink="http://www.w3.org/1999/xlink" version="1.1" x="0px" y="0px" viewBox="0 0 96.161 70" enable-background="new 0 0 96.161 70" xml:space="preserve"><path d="M59.625,55.584c-0.007,0-0.007,0.007-0.015,0.007c-0.087,0.04-0.198,0.071-0.301,0.08c0.056,0.031,0.127,0.007,0.198-0.016  c0.024,0,0.04-0.008,0.063-0.016c0.016,0,0.032-0.008,0.04-0.008h0.008c0.007,0,0.007,0,0.016,0L59.625,55.584z M39.458,22.062  c-0.04,0.031-0.047,0.055-0.063,0.071c-0.008,0.008-0.024,0.016-0.04,0.023c-0.016,0.008-0.023,0.016-0.032,0.04  c0,0-0.008,0-0.008,0.008c-0.008,0-0.008,0.008-0.008,0.008c-0.016,0-0.023,0.008-0.031,0.023c0,0,0,0,0,0.008  c-0.008,0-0.024,0.008-0.032,0.023c-0.008,0-0.008,0.008-0.016,0.016c-0.016,0.008-0.032,0.024-0.047,0.04v0.008  c0,0-0.008,0-0.008,0.008l-0.016,0.016c-0.007,0.016-0.023,0.031-0.039,0.047c-0.008,0.008-0.008,0.024-0.008,0.04h0.016  c0.008-0.016,0.024-0.024,0.04-0.04v-0.008c0.008-0.008,0.023-0.024,0.032-0.032c0.008-0.008,0.008-0.008,0.016-0.016  c0.008-0.007,0.024-0.023,0.032-0.031s0.008-0.008,0.016-0.016v-0.008c0.024-0.032,0.056-0.063,0.087-0.095  c0.016-0.016,0.04-0.04,0.056-0.055v-0.008c0-0.008,0.008-0.008,0.015-0.008c0,0,0.024-0.032,0.048-0.056c0,0,0,0,0-0.007H39.458z   M43.177,19.877c-0.039-0.039-0.095-0.063-0.158-0.055c0.079,0.024,0.158,0.064,0.229,0.119  C43.225,19.917,43.201,19.893,43.177,19.877z"></path><path d="M58.888,61.393c0,0-0.017,0.008-0.026,0.017c0.009,0,0.009,0,0.018,0c0.026,0,0.043-0.009,0.069-0.017H58.888z"></path><path d="M59.625,55.584c-0.007,0-0.007,0.007-0.015,0.007c-0.087,0.04-0.198,0.071-0.301,0.08c0.056,0.031,0.127,0.007,0.198-0.016  c0.024,0,0.04-0.008,0.063-0.016c0.016,0,0.032-0.008,0.04-0.008h0.008c0.007,0,0.007,0,0.016,0L59.625,55.584z M43.177,19.877  c-0.039-0.039-0.095-0.063-0.158-0.055c0.079,0.024,0.158,0.064,0.229,0.119C43.225,19.917,43.201,19.893,43.177,19.877z"></path><path d="M39.299,22.173c0,0.016,0,0.024-0.008,0.032c0,0,0,0,0.008,0c0.007-0.024,0.016-0.04,0.032-0.063  C39.323,22.149,39.307,22.157,39.299,22.173z M39.251,22.292V22.3c0,0.008,0,0.008-0.008,0.016c0.008-0.008,0.008-0.008,0.016-0.016  v-0.008H39.251z M39.458,22.062c-0.04,0.031-0.047,0.055-0.063,0.071c-0.008,0.008-0.024,0.016-0.04,0.023  c-0.016,0.008-0.023,0.016-0.032,0.04c0,0-0.008,0-0.008,0.008c-0.008,0-0.008,0.008-0.008,0.008c-0.016,0-0.023,0.008-0.031,0.023  c0,0,0,0,0,0.008c-0.016,0.016-0.024,0.032-0.024,0.047h0.008c0.024-0.032,0.056-0.063,0.087-0.095  c0.016-0.016,0.04-0.04,0.056-0.055v-0.008c0-0.008,0.008-0.008,0.015-0.008c0,0,0.024-0.032,0.048-0.056c0,0,0,0,0-0.007H39.458z   M39.417,21.951H39.41c0,0.016,0,0.032-0.008,0.047v0.008c0,0,0,0,0.008,0c0.007-0.016,0.016-0.032,0.031-0.048h0.008  c0-0.008,0.008-0.023,0.016-0.032C39.449,21.943,39.441,21.951,39.417,21.951z M59.563,55.909l0.007,0.008v-0.008H59.563z   M59.444,55.75h-0.008l-0.008-0.016l-0.007-0.008v0.111l0.095,0.047c0.008,0,0.008,0,0.008,0.008c0.015,0,0.023,0.008,0.04,0.016  c-0.016-0.024-0.032-0.048-0.056-0.08L59.444,55.75z M59.625,55.711c-0.007,0-0.007,0-0.007,0l0.007,0.04  c0-0.016,0-0.032,0.009-0.04C59.625,55.711,59.625,55.711,59.625,55.711z M59.618,55.972v-0.007H59.61l-0.024-0.024  c-0.008,0.008,0,0.008,0,0.008v0.008c0,0.008,0.008,0.024,0.008,0.032c0.008,0,0.008,0,0.016,0h0.024L59.618,55.972z M59.625,55.584  c-0.007,0-0.007,0.007-0.015,0.007V55.6c0,0.008,0.008,0.016,0.008,0.032c0.007,0,0.007,0,0.016,0L59.625,55.584z"></path><path d="M59.625,55.584c-0.007,0-0.007,0.007-0.015,0.007V55.6c0,0.008,0.008,0.016,0.008,0.032c0.007,0,0.007,0,0.016,0  L59.625,55.584z M59.618,55.972v-0.007H59.61c-0.016-0.008-0.016-0.008-0.024-0.016c0,0-0.008,0,0-0.008l-0.008-0.016v-0.008H59.57  v-0.008h-0.007c-0.016-0.024-0.032-0.048-0.056-0.08l-0.063-0.079h-0.008l-0.008-0.016l-0.007-0.008v0.261h0.174  c0.008,0,0.008,0,0.016,0h0.024L59.618,55.972z M59.625,55.711c-0.007,0-0.007,0-0.007,0l0.007,0.04c0-0.016,0-0.032,0.009-0.04  C59.625,55.711,59.625,55.711,59.625,55.711z M39.417,21.951H39.41c0,0.016,0,0.032-0.008,0.047v0.008c0,0,0,0,0.008,0  c0.007-0.016,0.016-0.032,0.031-0.048h0.008c0-0.008,0.008-0.023,0.016-0.032C39.449,21.943,39.441,21.951,39.417,21.951z   M39.386,22.038c0-0.016,0-0.031-0.016-0.047c0.008-0.008,0-0.008,0-0.016c0-0.007-0.008-0.016-0.008-0.016v-0.008h-0.008  c-0.023,0-0.032,0.071-0.04,0.143c0,0.032-0.008,0.055-0.016,0.079c0,0.016,0,0.024-0.008,0.032c0,0,0,0,0.008,0  c0.007-0.016,0.032-0.048,0.055-0.079c0.008-0.016,0.016-0.024,0.024-0.032c0,0,0.008,0,0.008-0.008  c0.008-0.016,0.016-0.032,0.016-0.047c0.008-0.008,0.008-0.008,0-0.016C39.394,22.03,39.394,22.03,39.386,22.038z M39.458,22.062  c-0.04,0.031-0.047,0.055-0.063,0.071c-0.008,0.008-0.024,0.016-0.04,0.023c-0.016,0.008-0.023,0.016-0.032,0.04  c0,0-0.008,0-0.008,0.008c-0.008,0-0.008,0.008-0.008,0.008c-0.023,0.023-0.031,0.055-0.047,0.079  c0.024-0.032,0.056-0.063,0.087-0.095c0.016-0.016,0.04-0.04,0.056-0.055v-0.008c0-0.008,0.008-0.008,0.015-0.008  c0,0,0.024-0.032,0.048-0.056c0,0,0,0,0-0.007H39.458z M39.251,22.3c0,0.008,0,0.008-0.008,0.016  c0.008-0.008,0.008-0.008,0.016-0.016C39.251,22.3,39.251,22.3,39.251,22.3z"></path><path d="M39.259,22.3v-0.008h-0.008c-0.008,0-0.016,0-0.023-0.008c-0.016,0.008-0.032,0.024-0.047,0.04v0.008  c0,0-0.008,0-0.008,0.008l-0.016,0.016c0.008,0,0.008,0,0.016,0c0.008-0.008,0.008-0.008,0.016-0.008h0.024  c0.024,0,0.055,0,0.079-0.007C39.307,22.323,39.283,22.315,39.259,22.3z M39.354,21.951l0.008,0.008v-0.008H39.354z M39.481,22.094  c0-0.008-0.009-0.016-0.016-0.024c0.016-0.016,0.023-0.032,0.039-0.04c0-0.008,0-0.008-0.007,0  c-0.008,0.008-0.016,0.023-0.032,0.032h-0.008c0-0.009,0-0.009,0-0.009c-0.008-0.007-0.016-0.007-0.016-0.016  c-0.016-0.016-0.031-0.031-0.031-0.031c0.007-0.016,0.016-0.032,0.031-0.048h0.008c0-0.008,0.008-0.023,0.016-0.032  c-0.016,0.016-0.024,0.024-0.048,0.024H39.41c0,0.016,0,0.032-0.008,0.047h-0.008c0-0.008-0.008-0.016-0.024-0.024  c0,0.008,0.008,0.008,0,0.016c0.016,0.016,0.016,0.032,0.016,0.047c0.008-0.008,0.008-0.008,0.016-0.016  c0.008,0.008,0.008,0.008,0,0.016c0.008,0.008,0.008,0.024,0.008,0.032c-0.008,0.016-0.016,0.024-0.032,0.024  c-0.008,0-0.008,0-0.016,0c-0.016,0-0.031-0.024-0.047,0c0,0.032-0.008,0.055-0.016,0.079c0,0.016,0,0.024-0.008,0.032  c0,0,0,0,0.008,0c0.007,0,0.007,0,0.016,0c0.008-0.008,0.023-0.008,0.032-0.008c0.071-0.008,0.142-0.008,0.214-0.016  c0.023,0,0.047-0.008,0.071-0.008v-0.055C39.631,22.102,39.481,22.094,39.481,22.094z M59.625,55.711c-0.007,0-0.007,0-0.007,0  l0.007,0.04c0-0.016,0-0.032,0.009-0.04C59.625,55.711,59.625,55.711,59.625,55.711z M59.618,55.972v-0.007H59.61  c-0.016-0.008-0.016-0.008-0.024-0.016c0,0-0.008,0,0-0.008l-0.008-0.016v-0.008H59.57v-0.008h-0.007  c-0.016-0.024-0.032-0.048-0.056-0.08l-0.063-0.079h-0.008l-0.008-0.016l-0.007-0.008v0.261h0.174c0.008,0,0.008,0,0.016,0h0.024  L59.618,55.972z M59.625,55.584c-0.007,0-0.007,0.007-0.015,0.007V55.6c0,0.008,0.008,0.016,0.008,0.032c0.007,0,0.007,0,0.016,0  L59.625,55.584z"></path><path d="M59.625,55.584c-0.007,0-0.007,0.007-0.015,0.007V55.6c0,0.008,0.008,0.016,0.008,0.032c0.007,0,0.007,0,0.016,0  L59.625,55.584z M59.618,55.972v-0.007H59.61c-0.016-0.008-0.016-0.008-0.024-0.016c0,0-0.008,0,0-0.008l-0.008-0.016v-0.008H59.57  v-0.008h-0.007c-0.016-0.024-0.032-0.048-0.056-0.08l-0.063-0.079h-0.008l-0.008-0.016l-0.007-0.008v0.261h0.174  c0.008,0,0.008,0,0.016,0h0.024L59.618,55.972z M59.625,55.711c-0.007,0-0.007,0-0.007,0l0.007,0.04c0-0.016,0-0.032,0.009-0.04  C59.625,55.711,59.625,55.711,59.625,55.711z M39.481,22.094c0-0.008-0.009-0.016-0.016-0.024c0,0,0,0,0-0.007h-0.008  c0-0.009,0-0.009,0-0.009c-0.008-0.007-0.016-0.007-0.016-0.016c-0.016-0.016-0.031-0.031-0.031-0.031c-0.008,0-0.008,0-0.008,0  s0-0.008-0.008-0.008c0-0.008-0.008-0.016-0.024-0.024c0-0.007-0.008-0.016-0.008-0.016l-0.008-0.008  c-0.023,0-0.032,0.071-0.04,0.143c0,0.032-0.008,0.055-0.016,0.079c0,0.016,0,0.024-0.008,0.032c0,0,0,0,0.008,0  c-0.008,0.016-0.016,0.024-0.024,0.031c-0.016,0.008-0.024,0.024-0.032,0.032c-0.008,0-0.008,0.008-0.016,0.016  c-0.016,0.008-0.032,0.024-0.047,0.04v0.008c0.007,0,0.007,0.008,0.007,0.016c0,0,0,0.008,0.008,0.016  c0.008,0.032,0.016,0.063,0.024,0.095c0.016-0.072,0.229-0.198,0.34-0.277c0.032-0.032,0.055-0.047,0.071-0.063  C39.631,22.102,39.481,22.094,39.481,22.094z M39.156,22.355h-0.007c-0.016,0.016-0.032,0.024-0.032,0.047  c-0.008,0.008-0.008,0.024-0.008,0.04h0.016c0.008-0.016,0.024-0.024,0.04-0.04v-0.008c0.008-0.016,0.008-0.024,0.008-0.04  c0-0.008,0-0.008,0-0.016L39.156,22.355z M39.125,22.743h0.024v-0.071C39.141,22.695,39.133,22.719,39.125,22.743z"></path><path d="M59.009,61.471c-0.008,0-0.008,0-0.008,0l0.008,0.043c0-0.018,0-0.035,0.009-0.043  C59.009,61.471,59.009,61.471,59.009,61.471z M59,61.757v-0.008h-0.008c-0.018-0.009-0.018-0.009-0.026-0.018c0,0-0.008,0,0-0.009  l-0.008-0.017v-0.009h-0.009v-0.009H58.94c-0.018-0.026-0.035-0.052-0.061-0.087l-0.069-0.086h-0.009l-0.009-0.018l-0.008-0.009  v0.287h0.191c0.008,0,0.008,0,0.018,0h0.026L59,61.757z M59.009,61.332C59,61.332,59,61.34,58.992,61.34v0.008  c0,0.009,0.008,0.018,0.008,0.035c0.008,0,0.008,0,0.018,0L59.009,61.332z"></path><path d="M59.009,61.471c-0.008,0-0.008,0-0.008,0l0.008,0.043c0-0.018,0-0.035,0.009-0.043  C59.009,61.471,59.009,61.471,59.009,61.471z M59,61.757v-0.008h-0.008c-0.018-0.009-0.018-0.009-0.026-0.018c0,0-0.008,0,0-0.009  l-0.008-0.017v-0.009h-0.009v-0.009H58.94c-0.018-0.026-0.035-0.052-0.061-0.087l-0.069-0.086h-0.009l-0.009-0.018l-0.008-0.009  v0.287h0.191c0.008,0,0.008,0,0.018,0h0.026L59,61.757z M59.009,61.332C59,61.332,59,61.34,58.992,61.34v0.008  c0,0.009,0.008,0.018,0.008,0.035c0.008,0,0.008,0,0.018,0L59.009,61.332z"></path><path d="M59.009,61.332C59,61.332,59,61.34,58.992,61.34v0.008c0,0.009,0.008,0.018,0.008,0.035c0.008,0,0.008,0,0.018,0  L59.009,61.332z M59,61.757v-0.008h-0.008c-0.018-0.009-0.018-0.009-0.026-0.018c0,0-0.008,0,0-0.009l-0.008-0.017v-0.009h-0.009  v-0.009H58.94c-0.018-0.026-0.035-0.052-0.061-0.087l-0.069-0.086h-0.009l-0.009-0.018l-0.008-0.009v0.287h0.191  c0.008,0,0.008,0,0.018,0h0.026L59,61.757z M59.009,61.471c-0.008,0-0.008,0-0.008,0l0.008,0.043c0-0.018,0-0.035,0.009-0.043  C59.009,61.471,59.009,61.471,59.009,61.471z"></path><path d="M59.009,61.471v0.017l0.009-0.017C59.009,61.471,59.009,61.471,59.009,61.471z M59.009,61.332  C59,61.332,59,61.34,58.992,61.34v0.008c0,0.009,0.008,0.018,0.008,0.035c0.008,0,0.008,0,0.018,0L59.009,61.332z"></path><path d="M59.009,61.471v0.017l0.009-0.017C59.009,61.471,59.009,61.471,59.009,61.471z"></path><path d="M59.009,61.471c-0.008,0-0.008,0-0.008,0l0.008,0.043c0-0.018,0-0.035,0.009-0.043  C59.009,61.471,59.009,61.471,59.009,61.471z"></path><path d="M59.009,61.332l-0.017,0.017c0,0.018,0,0.026-0.018,0.035c0.008,0,0.008,0,0.018,0H59c0.008,0,0.008,0,0.018,0  L59.009,61.332z M59.009,61.471c-0.008,0-0.008,0-0.008,0l0.008,0.043c0-0.018,0-0.035,0.009-0.043  C59.009,61.471,59.009,61.471,59.009,61.471z"></path><path d="M59.018,61.384c-0.009,0-0.009,0-0.018,0h-0.008c-0.009,0-0.026,0.009-0.044,0.009c-0.026,0.008-0.043,0.017-0.069,0.017  c-0.078,0.026-0.156,0.052-0.217,0.018c0.113-0.009,0.235-0.043,0.331-0.087c0.008,0,0.008-0.008,0.017-0.008L59.018,61.384z"></path><polygon points="371.931,245.705 371.924,245.705 371.92,245.705 371.92,245.708 371.916,245.708 371.917,245.723 371.927,245.722   "></polygon><path d="M211.97,98.38c0.15-0.15,0.29-0.28,0.44-0.39c-0.1,0.06-0.21,0.12-0.29,0.18c0,0.01-0.12,0.01-0.12,0.01v0.01  c0,0.03,0.04,0.06,0.01,0.09C211.99,98.3,211.98,98.33,211.97,98.38z"></path><path d="M59.009,61.471c-0.008,0-0.008,0-0.008,0l0.008,0.043c0-0.018,0-0.035,0.009-0.043  C59.009,61.471,59.009,61.471,59.009,61.471z M59,61.757v-0.008h-0.008c-0.018-0.009-0.018-0.009-0.026-0.018c0,0-0.008,0,0-0.009  l-0.008-0.017v-0.009h-0.009v-0.009H58.94c-0.018-0.026-0.035-0.052-0.061-0.087l-0.069-0.086h-0.009l-0.009-0.018l-0.008-0.009  v0.287h0.191c0.008,0,0.008,0,0.018,0h0.026L59,61.757z M59.009,61.332C59,61.332,59,61.34,58.992,61.34v0.008  c0,0.009,0.008,0.018,0.008,0.035c0.008,0,0.008,0,0.018,0L59.009,61.332z"></path><path d="M59.009,61.332C59,61.332,59,61.34,58.992,61.34v0.008c0,0.009,0.008,0.018,0.008,0.035c0.008,0,0.008,0,0.018,0  L59.009,61.332z M59,61.757v-0.008h-0.008c-0.018-0.009-0.018-0.009-0.026-0.018c0,0-0.008,0,0-0.009l-0.008-0.017v-0.009h-0.009  v-0.009H58.94c-0.018-0.026-0.035-0.052-0.061-0.087l-0.069-0.086h-0.009l-0.009-0.018l-0.008-0.009v0.287h0.191  c0.008,0,0.008,0,0.018,0h0.026L59,61.757z M59.009,61.471c-0.008,0-0.008,0-0.008,0l0.008,0.043c0-0.018,0-0.035,0.009-0.043  C59.009,61.471,59.009,61.471,59.009,61.471z"></path><path d="M59.009,61.471c-0.008,0-0.008,0-0.008,0l0.008,0.043c0-0.018,0-0.035,0.009-0.043  C59.009,61.471,59.009,61.471,59.009,61.471z M59,61.757v-0.008h-0.008c-0.018-0.009-0.018-0.009-0.026-0.018c0,0-0.008,0,0-0.009  l-0.008-0.017v-0.009h-0.009v-0.009H58.94c-0.018-0.026-0.035-0.052-0.061-0.087l-0.069-0.086h-0.009l-0.009-0.018l-0.008-0.009  v0.287h0.191c0.008,0,0.008,0,0.018,0h0.026L59,61.757z M59.009,61.332C59,61.332,59,61.34,58.992,61.34v0.008  c0,0.009,0.008,0.018,0.008,0.035c0.008,0,0.008,0,0.018,0L59.009,61.332z"></path><path d="M59.009,61.332C59,61.332,59,61.34,58.992,61.34v0.008c0,0.009,0.008,0.018,0.008,0.035c0.008,0,0.008,0,0.018,0  L59.009,61.332z M59,61.757v-0.008h-0.008c-0.018-0.009-0.018-0.009-0.026-0.018c0,0-0.008,0,0-0.009l-0.008-0.017v-0.009h-0.009  v-0.009H58.94c-0.018-0.026-0.035-0.052-0.061-0.087l-0.069-0.086h-0.009l-0.009-0.018l-0.008-0.009v0.287h0.191  c0.008,0,0.008,0,0.018,0h0.026L59,61.757z M59.009,61.471c-0.008,0-0.008,0-0.008,0l0.008,0.043c0-0.018,0-0.035,0.009-0.043  C59.009,61.471,59.009,61.471,59.009,61.471z"></path><path d="M59.009,61.332C59,61.332,59,61.34,58.992,61.34v0.008c0,0.009,0.008,0.018,0.008,0.035c0.008,0,0.008,0,0.018,0  L59.009,61.332z M59,61.757v-0.008h-0.008c-0.018-0.009-0.018-0.009-0.026-0.018c0,0-0.008,0,0-0.009l-0.008-0.017v-0.009h-0.009  v-0.009H58.94c-0.018-0.026-0.035-0.052-0.061-0.087l-0.069-0.086h-0.009l-0.009-0.018l-0.008-0.009v0.287h0.191  c0.008,0,0.008,0,0.018,0h0.026L59,61.757z M59.009,61.471c-0.008,0-0.008,0-0.008,0l0.008,0.043c0-0.018,0-0.035,0.009-0.043  C59.009,61.471,59.009,61.471,59.009,61.471z"></path><path d="M59.009,61.471c-0.008,0-0.008,0-0.008,0l0.008,0.043c0-0.018,0-0.035,0.009-0.043  C59.009,61.471,59.009,61.471,59.009,61.471z M59,61.757v-0.008h-0.008c-0.018-0.009-0.018-0.009-0.026-0.018c0,0-0.008,0,0-0.009  l-0.008-0.017v-0.009h-0.009v-0.009H58.94c-0.018-0.026-0.035-0.052-0.061-0.087l-0.069-0.086h-0.009l-0.009-0.018l-0.008-0.009  v0.287h0.191c0.008,0,0.008,0,0.018,0h0.026L59,61.757z M59.009,61.332C59,61.332,59,61.34,58.992,61.34v0.008  c0,0.009,0,0.035,0,0.035H59c0.008,0,0.008,0,0.018,0L59.009,61.332z"></path><path d="M20.967,42.571c-0.016,0-0.023,0-0.04-0.008c-0.032,0-0.063-0.008-0.095-0.008c0.071,0.008,0.142,0.016,0.213,0.032  C21.015,42.579,20.991,42.579,20.967,42.571z M59.618,55.711l0.007,0.04c0-0.016,0-0.032,0.009-0.04c-0.009,0-0.009,0-0.009,0  C59.618,55.711,59.618,55.711,59.618,55.711z M59.539,55.758l0.08-0.008h-0.08V55.758z M59.507,55.655  c0.024,0,0.04-0.008,0.063-0.016c0.016,0,0.032-0.008,0.04-0.008h0.008c0.007,0,0.007,0,0.016,0l-0.009-0.047  c-0.007,0-0.007,0.007-0.015,0.007c-0.087,0.04-0.198,0.071-0.301,0.08C59.365,55.703,59.436,55.679,59.507,55.655z M59.579,55.917  c0-0.047,0-0.095-0.008-0.095c-0.007,0-0.016-0.008-0.032-0.016l-0.007-0.023l-0.008-0.016c-0.008,0-0.024,0-0.032-0.008  l-0.071-0.071v0.023c0,0.023-0.087,0-0.182,0.023c0.063,0.032,0.126,0.063,0.182,0.103v0.15h0.174c0.008,0,0.008,0,0.016,0h0.024  v-0.04c-0.016-0.008-0.032-0.016-0.048-0.024L59.579,55.917z M43.019,19.822c0.079,0.024,0.158,0.064,0.229,0.119  c-0.023-0.024-0.047-0.048-0.071-0.064C43.138,19.838,43.083,19.814,43.019,19.822z M39.465,22.07  c0.016-0.016,0.023-0.032,0.039-0.04c0-0.008,0.009-0.016,0.009-0.016l-0.016,0.008v0.008c-0.008,0.008-0.016,0.023-0.032,0.032  h-0.008c0-0.009,0-0.009,0-0.009c-0.008-0.007-0.016-0.007-0.016-0.016c0.024-0.023,0.04-0.04,0.063-0.063  c-0.023,0-0.032-0.007-0.055-0.016c0-0.008,0.008-0.023,0.016-0.032c-0.016,0.016-0.024,0.024-0.048,0.024H39.41  c0,0.016,0,0.032-0.008,0.047h-0.008c0-0.008-0.008-0.016-0.024-0.024c0-0.007-0.008-0.016-0.008-0.016v-0.008h-0.008  c-0.023,0-0.032,0.071-0.04,0.143c0,0.032-0.008,0.055-0.016,0.079c0,0.016,0,0.024-0.008,0.032c0,0,0,0,0.008,0  c-0.008,0.016-0.016,0.024-0.024,0.031c-0.016,0.008-0.024,0.024-0.032,0.032c-0.008,0-0.008,0.008-0.016,0.016  c-0.016,0.008-0.032,0.024-0.047,0.04v0.008c0,0-0.008,0-0.008,0.008l-0.016,0.016h-0.007c-0.016,0.016-0.032,0.024-0.032,0.047  c-0.008,0.008-0.008,0.024-0.008,0.04h0.016c0.008-0.016,0.024-0.024,0.04-0.04v-0.008c0.008-0.008,0.023-0.024,0.032-0.032  c0.008,0.032,0.016,0.063,0.024,0.095c0.016-0.072,0.229-0.198,0.34-0.277c0.023,0,0.047-0.008,0.071-0.008v-0.055  c0-0.016-0.15-0.024-0.15-0.024C39.481,22.085,39.473,22.078,39.465,22.07z M39.149,22.743v-0.071  c-0.008,0.023-0.016,0.047-0.024,0.071H39.149z M20.927,42.563c-0.032,0-0.063-0.008-0.095-0.008  c0.071,0.008,0.142,0.016,0.213,0.032c-0.031-0.008-0.055-0.008-0.079-0.016C20.951,42.571,20.943,42.571,20.927,42.563z"></path><path d="M93.449,27.698c-3.847-4.932-8.502-9.261-13.734-12.688c-5.129-3.348-10.686-5.486-16.599-6.997  c-3.246-0.832-6.602-1.48-9.965-1.433C49.685,6.643,46.328,7.569,42.9,7.972c-2.937,0.349-5.794,0.903-8.493,2.153  c-1.219,0.562-2.351,1.29-3.585,1.829c-1.346,0.585-2.715,1.1-4.053,1.686c-1.599,0.696-3.19,1.488-4.567,2.565  c-1.425,1.108-2.129,2.382-2.945,3.942c-0.871,1.686-2.667,2.873-3.958,4.25c-0.625,0.673-1.425,1.441-1.741,2.327  c-0.174,0.475-0.491,0.515-0.974,0.76c-0.903,0.458-1.773,0.981-2.581,1.591c-0.768,0.586-1.472,1.258-2.026,2.05  c-0.601,0.862-0.934,1.86-1.52,2.731c-0.886,1.337-1.781,2.667-2.176,4.242c-0.412,1.623-0.19,3.198,0.134,4.812  c0.918,0.048,1.796,0.048,2.708-0.15c0.617-0.135,1.226-0.317,1.836-0.483c0.522-0.15,0.657-0.317,1.068,0.079  c0.293,0.286,0.586,0.562,0.887,0.839c2.074,1.908,4.29,3.666,6.633,5.232c4.163,2.771,8.73,4.923,13.528,6.356  c4.187,1.25,8.524,1.956,12.894,2.161c2.549,0.119,5.114,0.071,7.663-0.143c1.37-0.11,2.73-0.263,4.092-0.461  C56.792,56.176,59.246,56,59.594,56H60v-0.163c0-0.04-0.119-0.071-0.182-0.103c0.095-0.023,0.182,0,0.182-0.023v-0.023l-0.219,0.071  c0.008,0.008-0.121,0.008-0.113,0.008l-0.065,0.016l0.178,0.023C59.797,55.813,60,55.822,60,55.822s0,0.047,0,0.095l-0.02,0.008  C59.996,55.933,60,55.94,60,55.948V56h-0.19c-0.056,0,5.018,2.828,7.495,1.902c0.918-0.349,1.535-1.19,2.161-1.911  c0.918-1.061,1.757-2.162,2.612-3.279c1.591-2.058,3.012-4.425,4.856-6.27c1.044-1.029,2.313-1.797,3.342-2.834  c0.618-0.618,1.082-1.338,1.572-2.05c-0.57-0.744-1.292-1.884-1.925-2.723c0.807-0.507,1.669-1.03,2.263-1.394  c1.781-1.092,3.57-2.192,5.351-3.285c2.612-1.599,4.82-2.992,6.625-5.564L93.449,27.698z M78.148,17.036  c-2.185,0.887-3.744,2.588-4.915,4.591c-0.657,1.124-1.211,2.312-1.758,3.491c-0.633,1.353-1.646,2.825-2.026,4.258  c-0.103-0.08-0.213-0.15-0.316-0.23c-1.401-0.997-2.834-1.916-4.29-2.746c0.451-1.243,0.53-2.636,0.99-3.903  c0.482-1.345,1.1-2.651,1.86-3.871c1.203-1.931,3.087-4.203,5.557-4.313C74.903,15.104,76.541,16.022,78.148,17.036z M64.724,11.218  c1.694,0.482,3.396,0.958,5.034,1.599c-3.625,2.454-6.206,8.145-6.887,12.514c-1.884-0.981-3.799-1.812-5.723-2.493  C57.75,18.769,58.874,13.157,64.724,11.218z M55.501,9.477c1.789,0.142,3.625,0.411,5.431,0.823  c-4.227,3.063-5.304,8.327-5.842,11.874c-1.908-0.562-3.934-1.148-6.008-1.615c0.159-0.293,0.238-2.327,0.491-3.372  c0.277-1.179,0.775-2.304,1.424-3.325C52.13,12.088,53.697,10.553,55.501,9.477z M18.964,23.526c0.697-0.633,1.781-1.354,2.248-2.2  c0.222-0.372,0.309-0.808,0.546-1.179c0.443-0.705,1.069-1.275,1.726-1.773c1.44-1.068,3.103-1.813,4.749-2.509  c1.884-0.784,3.752-1.528,5.541-2.509c1.654-0.91,3.412-1.599,5.248-2.026c2.177-0.515,4.417-0.665,6.617-1.037  c1.243-0.214,2.47-0.443,3.712-0.633c0.554-0.087,1.1-0.198,1.654-0.261C51.607,9.335,51.552,10,51.434,10h-0.016  c-2.422,2-4.33,5.785-4.219,9.957c0,0.056,0.008,0.139,0.016,0.186c-2.787-0.523-5.612-0.774-8.438-0.49  c-2.889,0.293-5.715,1.019-8.597,1.32c-2.343,0.261-4.662,0.722-6.862,1.585c-2.28,0.895-4.362,2.187-6.633,3.113  C17.239,24.848,18.228,24.183,18.964,23.526z M43.249,19.941c-0.071-0.055-0.15-0.095-0.229-0.119  c0.063-0.008,0.119,0.016,0.158,0.055C43.201,19.893,43.225,19.917,43.249,19.941z M39.125,22.442h-0.016  c-0.016,0-0.008-0.016,0.008-0.04c0-0.023,0.016-0.032,0.032-0.047h0.007l0.016-0.016c0-0.008,0.008-0.008,0.008-0.008v-0.008  c0.016-0.016,0.031-0.032,0.047-0.04c0.008-0.008,0.008-0.016,0.016-0.016c0.008-0.008,0.016-0.023,0.032-0.032  c0.008-0.007,0.016-0.016,0.024-0.031c-0.008,0-0.008,0-0.008,0c0.008-0.008,0.008-0.016,0.008-0.032  c0.007-0.024,0.016-0.047,0.016-0.079c0.008-0.071,0.016-0.143,0.04-0.143h0.008v0.008c0,0,0.008,0.008,0.008,0.016  c0.016,0.008,0.024,0.016,0.024,0.024h0.008c0.008-0.016,0.008-0.031,0.008-0.047h0.007c0.024,0,0.032-0.008,0.048-0.024  c-0.008,0.008-0.016,0.024-0.016,0.032c0.023,0.008,0.032,0.016,0.055,0.016c-0.023,0.024-0.039,0.04-0.063,0.063  c0,0.008,0.008,0.008,0.016,0.016c0,0,0,0,0,0.009h0.008c0.016-0.009,0.023-0.024,0.032-0.032v-0.008l0.016-0.008  c0,0-0.009,0.008-0.009,0.016c-0.016,0.008-0.023,0.023-0.039,0.04c0.007,0.008,0.016,0.016,0.016,0.024c0,0,0.15,0.008,0.15,0.024  v0.055c-0.023,0-0.048,0.008-0.071,0.008c-0.111,0.079-0.325,0.206-0.34,0.277c-0.008-0.032-0.016-0.063-0.024-0.095  c-0.008,0.008-0.024,0.023-0.032,0.032v0.008C39.149,22.418,39.133,22.426,39.125,22.442z M39.149,22.672v0.071h-0.024  C39.133,22.719,39.141,22.695,39.149,22.672z M13.249,41.898c2.533,0.071,5.034,0.301,7.583,0.657  c-0.111-0.016-0.206-0.032-0.277-0.047c0.103,0.016,0.238,0.04,0.372,0.055c0.016,0.008,0.023,0.008,0.04,0.008  c0.056,0.008,0.119,0.016,0.19,0.032c0.032,0,0.063,0.195,0.103,0.202c0.023,0,0.048,0.195,0.063,0.195h0.032  c0.008,0,0.016-0.187,0.016-0.179c0.023,0,0.048-0.085,0.063-0.085c0.016,0,0.032-0.047,0.047-0.04  c0.04,0.008,0.063-0.014,0.063-0.014c6.103,0.902,12.261,1.579,18.253,3.083c2.873,0.72,5.85,1.569,8.493,2.931  c2.612,1.354,5.098,3.101,7.543,4.731C45.085,55.358,28.115,54.872,13.249,41.898z M59.539,55.758V55.75h0.08L59.539,55.758z   M59.625,55.75l-0.007-0.04c0,0,0,0,0.007,0c0,0,0,0,0.009,0C59.625,55.719,59.625,55.734,59.625,55.75z M59.618,55.632H59.61  c-0.008,0-0.024,0.008-0.04,0.008c-0.023,0.008-0.039,0.016-0.063,0.016c-0.071,0.023-0.143,0.047-0.198,0.016  c0.104-0.008,0.214-0.04,0.301-0.08c0.008,0,0.008-0.007,0.015-0.007l0.009,0.047C59.625,55.632,59.625,55.632,59.618,55.632z   M77.721,40.275c0.388,0.443,0.76,0.887,1.132,1.338c-1.037,1.005-2.303,1.741-3.309,2.786c-0.72,0.752-1.33,1.623-1.963,2.446  c-1.773,2.351-3.483,4.749-5.383,6.989c-0.609,0.72-1.187,1.583-2.216,1.583c-1.037,0-2.065-0.387-3-0.792  c-2.58-1.1-4.971-2.659-7.314-4.195c-2.248-1.473-4.432-3.221-6.862-4.393c-2.826-1.369-5.913-2.28-8.945-3.032  c-6.316-1.559-12.76-2.232-19.187-3.087c-2.509-0.333-5.05-0.491-7.583-0.538c-1.077-0.024-2.169-0.064-3.238,0.086  c-1.251,0.175-2.446,0.625-3.697,0.8c-0.031-1.766,0.982-3.183,1.899-4.591c0.666-1.021,1.069-2.288,1.86-3.206  c1.956-2.24,5.138-3.301,7.812-4.378c3.159-1.274,5.945-3.142,9.317-3.886c1.932-0.427,3.894-0.562,5.865-0.76  c2.074-0.214,4.101-0.705,6.198-0.705c-1.536,1.512-2.778,2.92-3.499,4.962C35.23,28.75,33.838,33,35.951,33h0.032  c1.298,0,0.997-1.63,1.1-2.422c0.167-1.314,0.618-2.374,1.275-3.521c1.14-2.011,2.857-3.61,4.836-4.79  c1.789,0.135,3.625,0.496,5.43,0.907c-2.723,1.971-4.274,5.067-5.113,8.25c-0.34,1.298-0.57,2.633-0.768,3.963  c-0.08,0.483-0.23,1.059-0.12,1.55c0.167,0.776,1.045,1.372,1.694,0.684c0.681-0.712,0.602-2.397,0.76-3.307  c0.245-1.377,0.578-2.738,1.092-4.036c1.148-2.881,3.27-5.112,6.246-6.102c1.694,0.475,3.396,0.958,5.034,1.599  c-2.493,1.686-4.171,4.48-5.327,7.195c-0.578,1.362-1.045,2.77-1.354,4.219c-0.134,0.617-0.372,1.385-0.229,2.027  c0.15,0.657,0.831,1.258,1.496,0.831c0.594-0.388,0.586-1.156,0.705-1.773c0.127-0.665,0.293-1.314,0.491-1.956  c0.458-1.464,1.076-2.889,1.844-4.21c1.219-2.105,3.19-4.718,5.865-4.836c1.654,0.792,3.293,1.709,4.9,2.723  c-2.833,1.148-4.496,3.625-5.81,6.261c-0.76,1.528-1.433,3.095-2.193,4.623c-0.348,0.712-0.902,1.44-0.696,2.28  c0.19,0.775,1.092,1.33,1.717,0.625c0.546-0.618,0.871-1.607,1.227-2.351c0.356-0.736,0.697-1.48,1.045-2.225  c0.609-1.297,1.219-2.612,2.042-3.783c0.649-0.926,1.448-1.733,2.438-2.288c0.531-0.301,1.108-0.522,1.694-0.696  c0.427-0.119,1.258-0.103,1.503-0.349c3.175,2.327,6.159,5.05,8.842,8.098c0.008,0.008,0.016,0.024,0.032,0.04l0.008,0.008  C77.697,40.252,77.705,40.259,77.721,40.275z M89.824,29.755c0,0-0.008,0-0.024,0.016c-0.008,0.008-0.016,0.016-0.024,0.016  c-0.016,0.016-0.047,0.047-0.095,0.079c-0.031,0.024-0.055,0.047-0.079,0.063c-0.476,0.396-0.863,0.902-1.37,1.251  c-0.649,0.443-1.425,0.751-2.121,1.124c-1.195,0.649-2.375,1.322-3.515,2.058c-1.433,0.926-2.889,1.939-4.013,3.237  c-2.264-2.525-4.733-4.829-7.337-6.871c1.669-2.501,2.415-5.549,4.092-8.058c0.625-0.942,1.401-1.789,2.367-2.383  c0.514-0.317,1.068-0.562,1.638-0.744c0.452-0.143,1.504-0.167,1.773-0.435c3.657,2.691,7.069,5.905,10.045,9.538  C90.758,29.036,90.298,29.384,89.824,29.755z"></path><path d="M39.394,22.133c-0.008,0.008-0.024,0.016-0.04,0.023c-0.016,0.008-0.023,0.016-0.032,0.04c0,0-0.008,0-0.008,0.008  c-0.008,0-0.008,0.008-0.008,0.008c-0.023,0.023-0.031,0.055-0.047,0.079c0.024-0.032,0.056-0.063,0.087-0.095  c0.016-0.016,0.04-0.04,0.056-0.055v-0.008C39.394,22.133,39.394,22.133,39.394,22.133z M59.579,55.917c0-0.047,0-0.095-0.008-0.095  c-0.007,0-0.016-0.008-0.032-0.016l-0.118-0.118v0.023c0,0.023-0.087,0-0.182,0.023c0.063,0.032,0.126,0.063,0.182,0.103  l0.095,0.047c0.008,0,0.008,0,0.008,0.008c0.015,0,0.023,0.008,0.04,0.016h0.007v0.008H59.579z M59.586,55.924l-0.008-0.008v0.008  l0.008,0.016c-0.008,0.008,0,0.008,0,0.008v0.008c0,0.008,0.008,0.024,0.008,0.032c0.008,0,0.008,0,0.016,0h0.024v-0.04  C59.618,55.94,59.602,55.933,59.586,55.924z M59.625,55.584c-0.007,0-0.007,0.007-0.015,0.007V55.6c0,0.008,0.008,0.016,0.008,0.032  c0.007,0,0.007,0,0.016,0L59.625,55.584z M59.539,55.75v0.008l0.08-0.008H59.539z"></path><path d="M59.618,55.964v0.007l0.007,0.016h0.009v-0.016C59.625,55.972,59.625,55.972,59.618,55.964z M59.586,55.94  c-0.008,0.008,0,0.008,0,0.008c0.008,0.008,0.008,0.008,0.024,0.016L59.586,55.94z M59.539,55.806l-0.007-0.023l-0.008-0.016  c-0.008,0-0.024,0-0.032-0.008c-0.016,0-0.023,0-0.039-0.008h-0.008l0.063,0.079l0.063,0.072L59.539,55.806z M59.428,55.734  l-0.007-0.008v0.024c0,0,0,0,0.007,0h0.008L59.428,55.734z M39.449,21.959h-0.008c-0.008-0.008-0.016-0.008-0.024-0.008H39.41  c0,0.016,0,0.032-0.008,0.047h-0.008c0.008,0.016,0,0.032-0.008,0.04c0.008,0.016-0.008,0.04-0.024,0.056  c-0.016,0.016-0.031,0.032-0.031,0.048c0.007-0.008,0.016-0.016,0.023-0.016c0.008-0.016,0.016-0.024,0.024-0.032  c0,0,0.008,0,0.008-0.008c0.008-0.007,0.016-0.016,0.024-0.016c0.007-0.016,0.023-0.023,0.031-0.032  c0.024-0.023,0.04-0.04,0.063-0.063C39.481,21.975,39.473,21.967,39.449,21.959z M39.251,22.292V22.3c0,0.008,0,0.008-0.008,0.016  c0.008-0.008,0.008-0.008,0.016-0.016v-0.008H39.251z M39.458,22.062c-0.04,0.031-0.047,0.055-0.063,0.071  c-0.008,0.008-0.024,0.016-0.04,0.023c-0.016,0.008-0.023,0.016-0.032,0.04c0,0-0.008,0-0.008,0.008  c-0.008,0-0.008,0.008-0.008,0.008c-0.016,0-0.023,0.008-0.031,0.023c0,0,0,0,0,0.008c-0.016,0.016-0.024,0.032-0.024,0.047h0.008  c0.024-0.032,0.056-0.063,0.087-0.095c0.016-0.016,0.04-0.04,0.056-0.055v-0.008c0-0.008,0.008-0.008,0.015-0.008  c0,0,0.024-0.032,0.048-0.056c0,0,0,0,0-0.007H39.458z"></path></svg>
