  <svg aria-hidden="true" style="position: absolute; width: 0; height: 0; overflow: hidden;" version="1.1"
    xmlns="http://www.w3.org/2000/svg" xmlns:xlink="http://www.w3.org/1999/xlink">
    <defs>
      <symbol id="icon-code" viewBox="0 0 15 14">
        <path style="fill: currentColor"
          d="M4.82 10.93l-0.391 0.391c-0.102 0.102-0.258 0.102-0.359 0l-3.641-3.641c-0.102-0.102-0.102-0.258 0-0.359l3.641-3.641c0.102-0.102 0.258-0.102 0.359 0l0.391 0.391c0.102 0.102 0.102 0.258 0 0.359l-3.070 3.070 3.070 3.070c0.102 0.102 0.102 0.258 0 0.359zM9.438 2.594l-2.914 10.086c-0.039 0.133-0.18 0.211-0.305 0.172l-0.484-0.133c-0.133-0.039-0.211-0.18-0.172-0.312l2.914-10.086c0.039-0.133 0.18-0.211 0.305-0.172l0.484 0.133c0.133 0.039 0.211 0.18 0.172 0.312zM14.57 7.68l-3.641 3.641c-0.102 0.102-0.258 0.102-0.359 0l-0.391-0.391c-0.102-0.102-0.102-0.258 0-0.359l3.070-3.070-3.070-3.070c-0.102-0.102-0.102-0.258 0-0.359l0.391-0.391c0.102-0.102 0.258-0.102 0.359 0l3.641 3.641c0.102 0.102 0.102 0.258 0 0.359z">
        </path>
      </symbol>
      <symbol id="icon-twitter" viewBox="0 0 13 14">
        <path style="fill: currentColor"
          d="M12.656 3.188c-0.344 0.5-0.773 0.945-1.266 1.305 0.008 0.109 0.008 0.219 0.008 0.328 0 3.336-2.539 7.18-7.18 7.18-1.43 0-2.758-0.414-3.875-1.133 0.203 0.023 0.398 0.031 0.609 0.031 1.18 0 2.266-0.398 3.133-1.078-1.109-0.023-2.039-0.75-2.359-1.75 0.156 0.023 0.312 0.039 0.477 0.039 0.227 0 0.453-0.031 0.664-0.086-1.156-0.234-2.023-1.25-2.023-2.477v-0.031c0.336 0.187 0.727 0.305 1.141 0.32-0.68-0.453-1.125-1.227-1.125-2.102 0-0.469 0.125-0.898 0.344-1.273 1.242 1.531 3.109 2.531 5.203 2.641-0.039-0.187-0.062-0.383-0.062-0.578 0-1.391 1.125-2.523 2.523-2.523 0.727 0 1.383 0.305 1.844 0.797 0.57-0.109 1.117-0.32 1.602-0.609-0.187 0.586-0.586 1.078-1.109 1.391 0.508-0.055 1-0.195 1.453-0.391z">
        </path>
      </symbol>
      <symbol id="icon-github" viewBox="0 0 12 14">
        <path style="fill: currentColor"
          d="M6 1c3.313 0 6 2.687 6 6 0 2.648-1.719 4.898-4.102 5.695-0.305 0.055-0.414-0.133-0.414-0.289 0-0.195 0.008-0.844 0.008-1.648 0-0.563-0.187-0.922-0.406-1.109 1.336-0.148 2.742-0.656 2.742-2.961 0-0.656-0.234-1.187-0.617-1.609 0.062-0.156 0.266-0.766-0.062-1.594-0.5-0.156-1.648 0.617-1.648 0.617-0.477-0.133-0.992-0.203-1.5-0.203s-1.023 0.070-1.5 0.203c0 0-1.148-0.773-1.648-0.617-0.328 0.828-0.125 1.438-0.062 1.594-0.383 0.422-0.617 0.953-0.617 1.609 0 2.297 1.398 2.812 2.734 2.961-0.172 0.156-0.328 0.422-0.383 0.805-0.344 0.156-1.219 0.422-1.742-0.5-0.328-0.57-0.922-0.617-0.922-0.617-0.586-0.008-0.039 0.367-0.039 0.367 0.391 0.18 0.664 0.875 0.664 0.875 0.352 1.070 2.023 0.711 2.023 0.711 0 0.5 0.008 0.969 0.008 1.117 0 0.156-0.109 0.344-0.414 0.289-2.383-0.797-4.102-3.047-4.102-5.695 0-3.313 2.687-6 6-6zM2.273 9.617c0.016-0.031-0.008-0.070-0.055-0.094-0.047-0.016-0.086-0.008-0.102 0.016-0.016 0.031 0.008 0.070 0.055 0.094 0.039 0.023 0.086 0.016 0.102-0.016zM2.516 9.883c0.031-0.023 0.023-0.078-0.016-0.125-0.039-0.039-0.094-0.055-0.125-0.023-0.031 0.023-0.023 0.078 0.016 0.125 0.039 0.039 0.094 0.055 0.125 0.023zM2.75 10.234c0.039-0.031 0.039-0.094 0-0.148-0.031-0.055-0.094-0.078-0.133-0.047-0.039 0.023-0.039 0.086 0 0.141s0.102 0.078 0.133 0.055zM3.078 10.562c0.031-0.031 0.016-0.102-0.031-0.148-0.055-0.055-0.125-0.062-0.156-0.023-0.039 0.031-0.023 0.102 0.031 0.148 0.055 0.055 0.125 0.062 0.156 0.023zM3.523 10.758c0.016-0.047-0.031-0.102-0.102-0.125-0.062-0.016-0.133 0.008-0.148 0.055s0.031 0.102 0.102 0.117c0.062 0.023 0.133 0 0.148-0.047zM4.016 10.797c0-0.055-0.062-0.094-0.133-0.086-0.070 0-0.125 0.039-0.125 0.086 0 0.055 0.055 0.094 0.133 0.086 0.070 0 0.125-0.039 0.125-0.086zM4.469 10.719c-0.008-0.047-0.070-0.078-0.141-0.070-0.070 0.016-0.117 0.062-0.109 0.117 0.008 0.047 0.070 0.078 0.141 0.062s0.117-0.062 0.109-0.109z">
        </path>
      </symbol>
      <symbol id="icon-linkedin" viewBox="0 0 12 14">
        <path style="fill: currentColor"
          d="M2.727 4.883v7.742h-2.578v-7.742h2.578zM2.891 2.492c0.008 0.742-0.555 1.336-1.453 1.336v0h-0.016c-0.867 0-1.422-0.594-1.422-1.336 0-0.758 0.578-1.336 1.453-1.336 0.883 0 1.43 0.578 1.438 1.336zM12 8.187v4.437h-2.57v-4.141c0-1.039-0.375-1.75-1.305-1.75-0.711 0-1.133 0.477-1.32 0.937-0.062 0.172-0.086 0.398-0.086 0.633v4.32h-2.57c0.031-7.016 0-7.742 0-7.742h2.57v1.125h-0.016c0.336-0.531 0.945-1.305 2.336-1.305 1.695 0 2.961 1.109 2.961 3.484z">
        </path>
      </symbol>
      <symbol id="icon-email" viewBox="0 0 14 14">
        <path style="fill: currentColor"
          d="M14 5.547v6.203c0 0.688-0.563 1.25-1.25 1.25h-11.5c-0.688 0-1.25-0.563-1.25-1.25v-6.203c0.234 0.258 0.5 0.484 0.789 0.68 1.297 0.883 2.609 1.766 3.883 2.695 0.656 0.484 1.469 1.078 2.32 1.078h0.016c0.852 0 1.664-0.594 2.32-1.078 1.273-0.922 2.586-1.812 3.891-2.695 0.281-0.195 0.547-0.422 0.781-0.68zM14 3.25c0 0.875-0.648 1.664-1.336 2.141-1.219 0.844-2.445 1.688-3.656 2.539-0.508 0.352-1.367 1.070-2 1.070h-0.016c-0.633 0-1.492-0.719-2-1.070-1.211-0.852-2.438-1.695-3.648-2.539-0.555-0.375-1.344-1.258-1.344-1.969 0-0.766 0.414-1.422 1.25-1.422h11.5c0.68 0 1.25 0.563 1.25 1.25z">
        </path>
      </symbol>
      <symbol id="icon-linux" viewBox="0 0 14 14">
        <path style="fill: currentColor"
          d="M5.18 3.211v0c-0.156 0.016-0.102 0.156-0.187 0.156-0.078 0.008-0.062-0.172 0.187-0.156zM5.859 3.32c-0.078 0.023-0.086-0.125-0.227-0.086v0c0.227-0.102 0.305 0.055 0.227 0.086zM3.117 6.656c-0.070-0.023-0.055 0.117-0.125 0.227-0.055 0.102-0.195 0.18-0.086 0.195v0c0.039 0.008 0.148-0.086 0.195-0.195 0.039-0.133 0.078-0.203 0.016-0.227zM9.797 9.461c0-0.141-0.305-0.273-0.43-0.328 0.211-0.703 0.117-0.984-0.023-1.648-0.109-0.5-0.57-1.18-0.93-1.391 0.094 0.078 0.266 0.305 0.445 0.648 0.312 0.586 0.625 1.453 0.422 2.172-0.078 0.281-0.266 0.32-0.391 0.328-0.547 0.062-0.227-0.656-0.453-1.633-0.258-1.094-0.523-1.172-0.586-1.258-0.32-1.422-0.672-1.281-0.773-1.812-0.086-0.477 0.414-0.867-0.266-1-0.211-0.039-0.508-0.25-0.625-0.266s-0.18-0.789 0.258-0.813c0.43-0.031 0.508 0.484 0.43 0.688-0.125 0.203 0.008 0.281 0.219 0.211 0.172-0.055 0.062-0.508 0.102-0.57-0.109-0.656-0.383-0.75-0.664-0.805-1.078 0.086-0.594 1.273-0.703 1.164-0.156-0.164-0.609-0.016-0.609-0.117 0.008-0.609-0.195-0.961-0.477-0.969-0.312-0.008-0.438 0.43-0.453 0.68-0.023 0.234 0.133 0.727 0.25 0.688 0.078-0.023 0.211-0.18 0.070-0.172-0.070 0-0.18-0.172-0.195-0.375-0.008-0.203 0.070-0.406 0.336-0.398 0.305 0.008 0.305 0.617 0.273 0.641-0.102 0.070-0.227 0.203-0.242 0.227-0.102 0.164-0.297 0.211-0.375 0.281-0.133 0.141-0.164 0.297-0.062 0.352 0.359 0.203 0.242 0.438 0.742 0.453 0.328 0.016 0.57-0.047 0.797-0.117 0.172-0.055 0.727-0.172 0.844-0.375 0.055-0.086 0.117-0.086 0.156-0.062 0.078 0.039 0.094 0.187-0.102 0.234-0.273 0.078-0.547 0.227-0.797 0.32-0.242 0.102-0.32 0.141-0.547 0.18-0.516 0.094-0.898-0.187-0.555 0.148 0.117 0.109 0.227 0.18 0.523 0.172 0.656-0.023 1.383-0.813 1.453-0.461 0.016 0.078-0.203 0.172-0.375 0.258-0.609 0.297-1.039 0.891-1.43 0.688-0.352-0.187-0.703-1.055-0.695-0.664 0.008 0.602-0.789 1.133-0.422 1.82-0.242 0.062-0.781 1.211-0.859 1.805-0.047 0.344 0.031 0.766-0.055 1-0.117 0.344-0.648-0.328-0.477-1.148 0.031-0.141 0-0.172-0.039-0.102-0.211 0.383-0.094 0.922 0.078 1.297 0.070 0.164 0.25 0.234 0.383 0.375 0.273 0.312 1.352 1.109 1.539 1.305 0.242 0.227 0.172 0.758-0.328 0.813v0c0.258 0.484 0.508 0.531 0.5 1.32 0.297-0.156 0.18-0.5 0.055-0.719-0.086-0.156-0.195-0.227-0.172-0.266 0.016-0.023 0.172-0.156 0.258-0.055 0.266 0.297 0.766 0.352 1.297 0.281 0.539-0.062 1.117-0.25 1.383-0.68 0.125-0.203 0.211-0.273 0.266-0.234 0.062 0.031 0.086 0.172 0.078 0.406-0.008 0.25-0.109 0.508-0.18 0.719-0.070 0.242-0.094 0.406 0.141 0.414 0.062-0.438 0.187-0.867 0.219-1.305 0.039-0.5-0.32-1.422 0.070-1.883 0.102-0.125 0.227-0.141 0.398-0.141 0.023-0.625 0.984-0.578 1.305-0.32zM4.891 3c0.031-0.195-0.062-0.336-0.109-0.352-0.094-0.023-0.078 0.117-0.031 0.102v0c0.031 0 0.070 0.047 0.055 0.117-0.016 0.094-0.008 0.156 0.062 0.156 0.008 0 0.023 0 0.023-0.023zM8.164 4.539c-0.031-0.148-0.141-0.094-0.266-0.172-0.148-0.094-0.18-0.25-0.234-0.195v0c-0.164 0.18 0.203 0.555 0.359 0.586 0.094 0.016 0.164-0.109 0.141-0.219zM6.773 2.875c0.008-0.187-0.156-0.281-0.195-0.273-0.102 0.008-0.070 0.055-0.023 0.070v0c0.062 0.016 0.125 0.125 0.141 0.242 0 0.016 0.078-0.016 0.078-0.039zM7.195 1.055c0.008-0.039-0.094-0.086-0.164-0.141-0.062-0.062-0.125-0.117-0.187-0.117-0.156 0.016-0.078 0.18-0.102 0.258v0c-0.031 0.086-0.148 0.156-0.070 0.219 0.070 0.055 0.117-0.086 0.266-0.141 0.039-0.016 0.219 0.008 0.258-0.078zM11.609 11.531c0.961 0.594-0.359 1.086-0.93 1.375-0.445 0.227-1.039 0.727-1.258 0.937-0.164 0.156-0.844 0.234-1.227 0.039-0.445-0.227-0.211-0.586-0.898-0.609-0.344-0.008-0.68-0.008-1.016-0.008-0.297 0.008-0.594 0.023-0.898 0.031-1.031 0.023-1.133 0.688-1.797 0.664-0.453-0.016-1.023-0.375-2.008-0.578-0.688-0.141-1.352-0.18-1.492-0.484s0.172-0.648 0.195-0.945c0.023-0.398-0.297-0.937-0.062-1.141 0.203-0.18 0.633-0.047 0.914-0.203 0.297-0.172 0.422-0.305 0.422-0.672 0.109 0.375-0.008 0.68-0.25 0.828-0.148 0.094-0.422 0.141-0.648 0.117-0.18-0.016-0.289 0.008-0.336 0.078-0.070 0.086-0.047 0.242 0.039 0.445s0.187 0.336 0.172 0.586c-0.008 0.25-0.289 0.547-0.242 0.758 0.016 0.078 0.094 0.148 0.289 0.203 0.312 0.086 0.883 0.172 1.438 0.305 0.617 0.156 1.258 0.438 1.656 0.383 1.187-0.164 0.508-1.438 0.32-1.742v0c-1.008-1.578-1.672-2.609-2.203-2.203-0.133 0.109-0.141-0.266-0.133-0.414 0.023-0.516 0.281-0.703 0.437-1.102 0.297-0.758 0.523-1.625 0.977-2.070 0.336-0.438 0.867-1.148 0.969-1.523-0.086-0.813-0.109-1.672-0.125-2.422-0.016-0.805 0.109-1.508 1.016-2 0.219-0.117 0.508-0.164 0.813-0.164 0.539-0.008 1.141 0.148 1.523 0.43 0.609 0.453 0.992 1.414 0.945 2.102-0.031 0.539 0.062 1.094 0.234 1.672 0.203 0.68 0.523 1.156 1.039 1.703 0.617 0.656 1.102 1.945 1.242 2.766 0.125 0.766-0.047 1.242-0.211 1.266-0.25 0.039-0.406 0.828-1.187 0.797-0.5-0.023-0.547-0.32-0.688-0.578-0.227-0.398-0.453-0.273-0.539 0.148-0.047 0.211-0.016 0.523 0.055 0.758 0.141 0.492 0.094 0.953 0.008 1.523-0.164 1.078 0.758 1.281 1.375 0.766 0.609-0.508 0.742-0.586 1.508-0.852 1.164-0.398 0.773-0.75 0.148-0.961-0.563-0.187-0.586-1.133-0.383-1.313 0.047 1.016 0.578 1.164 0.797 1.305z">
        </path>
      </symbol>
      <symbol id="icon-git" viewBox="0 0 128 128">
      <path style="fill: currentColor" d="M124.737 58.378L69.621 3.264c-3.172-3.174-8.32-3.174-11.497 0L46.68 14.71l14.518 14.518c3.375-1.139 7.243-.375 9.932 2.314 2.703 2.706 3.461 6.607 2.294 9.993l13.992 13.993c3.385-1.167 7.292-.413 9.994 2.295 3.78 3.777 3.78 9.9 0 13.679a9.673 9.673 0 01-13.683 0 9.677 9.677 0 01-2.105-10.521L68.574 47.933l-.002 34.341a9.708 9.708 0 012.559 1.828c3.778 3.777 3.778 9.898 0 13.683-3.779 3.777-9.904 3.777-13.679 0-3.778-3.784-3.778-9.905 0-13.683a9.65 9.65 0 013.167-2.11V47.333a9.581 9.581 0 01-3.167-2.111c-2.862-2.86-3.551-7.06-2.083-10.576L41.056 20.333 3.264 58.123a8.133 8.133 0 000 11.5l55.117 55.114c3.174 3.174 8.32 3.174 11.499 0l54.858-54.858a8.135 8.135 0 00-.001-11.501z"></path>
      </symbol> 
      <symbol id="icon-python" viewBox="0 0 640 640">
        <path fill="#326c9b" d="M257.96 66.28C205.7 75.51 196.22 94.82 196.22 130.46C196.22 133.6 196.22 149.28 196.22 177.52L319.69 177.52L319.69 193.2C217.81 193.2 161.21 193.2 149.89 193.2C114.01 193.2 82.59 214.77 72.76 255.81C61.42 302.83 60.92 332.18 72.76 381.29C81.53 417.84 102.49 443.88 138.38 443.88C141.21 443.88 155.36 443.88 180.83 443.88C180.83 410.03 180.83 391.23 180.83 387.47C180.83 346.72 216.08 310.77 257.96 310.77C270.29 310.77 368.95 310.77 381.29 310.77C415.62 310.77 443.02 282.5 443.02 248.03C443.02 236.27 443.02 142.22 443.02 130.47C443.02 97 414.79 71.86 381.29 66.28C360.07 62.75 338.06 61.15 316.96 61.24C295.84 61.34 275.7 63.14 257.96 66.28ZM273.36 122.69C273.36 135.66 262.94 146.14 250.19 146.14C237.39 146.14 227.02 135.65 227.02 122.69C227.02 109.67 237.39 99.09 250.19 99.09C262.94 99.09 273.36 109.67 273.36 122.69Z"></path><path fill="#ffd43b" d="M458.41 248.03C458.41 290.53 422.37 326.31 381.28 326.31C368.95 326.31 270.29 326.31 257.96 326.31C224.18 326.31 196.23 355.22 196.23 389.05C196.23 400.81 196.23 494.87 196.23 506.63C196.23 540.08 225.32 559.77 257.96 569.36C297.04 580.84 334.52 582.92 381.28 569.36C412.36 560.35 443.01 542.24 443.01 506.63C443.01 503.49 443.01 487.8 443.01 459.57L319.69 459.57L319.69 443.87C430.73 443.87 492.41 443.87 504.75 443.87C540.63 443.87 554.01 418.85 566.49 381.28C579.38 342.6 578.83 305.41 566.49 255.8C557.62 220.07 540.68 193.19 504.75 193.19C501.66 193.19 486.21 193.19 458.41 193.19C458.41 226.1 458.41 244.37 458.41 248.03ZM412.22 514.4C412.22 527.41 401.85 537.99 389.04 537.99C376.3 537.99 365.88 527.41 365.88 514.4C365.88 501.42 376.3 490.94 389.04 490.94C401.85 490.94 412.22 501.42 412.22 514.4Z" id="a9cQrvvb0"></path>
      </symbol>
      <symbol id="icon-javascript" viewBox="0 0 14 14">
        <path style="fill: currentColor"
          d="M0 0h13.999v13.999h-13.999zM12.853 10.661c-0.102-0.639-0.518-1.175-1.752-1.676-0.429-0.201-0.906-0.341-1.048-0.665-0.053-0.192-0.061-0.297-0.027-0.411 0.087-0.377 0.534-0.49 0.884-0.385 0.227 0.070 0.437 0.245 0.569 0.525 0.603-0.394 0.603-0.394 1.024-0.656-0.157-0.245-0.236-0.351-0.342-0.455-0.367-0.411-0.857-0.621-1.653-0.603l-0.411 0.052c-0.394 0.096-0.77 0.306-0.997 0.586-0.665 0.753-0.473 2.065 0.332 2.608 0.796 0.595 1.96 0.726 2.109 1.286 0.14 0.682-0.507 0.901-1.147 0.822-0.473-0.105-0.735-0.342-1.024-0.779l-1.067 0.613c0.123 0.28 0.262 0.402 0.472 0.647 1.015 1.024 3.552 0.972 4.008-0.586 0.017-0.053 0.14-0.411 0.043-0.962zM7.613 6.435h-1.311c0 1.13-0.005 2.254-0.005 3.386 0 0.719 0.037 1.378-0.080 1.581-0.192 0.402-0.688 0.351-0.913 0.28-0.231-0.114-0.348-0.272-0.484-0.499-0.037-0.061-0.064-0.114-0.074-0.114l-1.065 0.656c0.178 0.367 0.437 0.684 0.772 0.885 0.499 0.297 1.169 0.394 1.871 0.236 0.457-0.132 0.85-0.403 1.056-0.823 0.297-0.542 0.234-1.207 0.232-1.952 0.007-1.198 0-2.397 0-3.604z">
        </path>
      </symbol>
      <symbol id="icon-ruby" viewBox="0 0 14 14">
        <path fill="#cc342d"
          d="M11.758 0.048c1.769 0.306 2.271 1.515 2.234 2.783l0.009-0.018-0.796 10.435-10.342 0.709c-0.859-0.036-2.774-0.115-2.862-2.792l0.96-1.75 1.938 4.525 1.636-5.334-0.018 0.004 0.009-0.017 5.399 1.724-0.814-3.168-0.578-2.275 5.145-0.332-0.359-0.298-3.694-3.011 2.134-1.191zM0 11.135v0.015-0.017zM2.992 2.959c2.077-2.061 4.758-3.279 5.788-2.24 1.028 1.037-0.061 3.561-2.143 5.621-2.078 2.060-4.727 3.345-5.754 2.308-1.030-1.037 0.026-3.627 2.107-5.688z">
        </path>
      </symbol>
      <symbol id="icon-nim" viewBox="0 0 14 14">
        <path style="fill: var(--nimlang-logo-color)" 
          d="M7.055 1.692c0 0-0.537 0.454-1.083 0.904-0.562-0.019-1.666 0.116-2.263 0.349-0.552-0.373-1.036-0.786-1.036-0.786s-0.414 0.761-0.673 1.207c-0.386 0.22-0.773 0.467-1.118 0.793-0.401-0.169-0.866-0.378-0.881-0.384 0.531 1.147 0.889 2.295 1.861 2.986 1.548-2.615 8.74-2.374 10.32-0.015 1.021-0.57 1.417-1.795 1.819-2.927-0.044 0.015-0.59 0.211-0.944 0.356-0.212-0.247-0.71-0.625-0.993-0.808-0.362-0.715-0.581-1.12-0.805-1.522l0.146 0.284c0 0-0.463 0.369-1 0.771-0.725-0.143-1.602-0.317-2.34-0.274-0.365-0.325-0.693-0.63-1.014-0.942l0.007 0.007zM0.55 6.213l1.277 3.308c2.217 3.13 7.879 3.348 10.348 0.061 0.584-1.409 1.372-3.388 1.372-3.388-0.633 1.004-1.664 1.697-2.298 2.070-0.451 0.264-1.492 0.424-1.492 0.424l-2.732-1.515-2.747 1.485c0 0-1.027-0.177-1.492-0.409-0.938-0.536-1.569-1.169-2.235-2.036z">
        </path>
      </symbol>
      <symbol id="icon-embed2" viewBox="0 0 18 14">
        <path d="M11.375 10.063l1.313 1.313 4.375-4.375-4.375-4.375-1.313 1.313 3.063 3.063z"></path>
        <path d="M6.125 3.938l-1.313-1.313-4.375 4.375 4.375 4.375 1.313-1.313-3.063-3.063z"></path>
        <path d="M9.588 2.058l0.95 0.259-2.625 9.625-0.95-0.259 2.625-9.625z"></path>
      </symbol>
      <symbol id="icon-sunny" viewBox="0 0 14 14">
        <path  style="fill: currentColor" d="M2.078 10.828l1.039-1.066 0.82 0.82-1.039 1.066zM6.426 13.098v-1.723h1.148v1.723h-1.148zM7 3.199q1.449 0 2.475 1.025t1.025 2.475-1.025 2.475-2.475 1.025-2.475-1.025-1.025-2.475 1.025-2.475 2.475-1.025zM11.676 6.125h1.75v1.176h-1.75v-1.176zM10.063 10.582l0.82-0.793 1.039 1.039-0.82 0.82zM11.922 2.598l-1.039 1.039-0.82-0.82 1.039-1.039zM7.574 0.328v1.723h-1.148v-1.723h1.148zM2.324 6.125v1.176h-1.75v-1.176h1.75zM3.938 2.816l-0.82 0.82-1.039-1.039 0.82-0.82z">
        </path>
      </symbol>
      <symbol id="icon-moon" viewBox="0 0 12 14">
        <path  style="fill: currentColor" d="M9.859 10.18c-0.281 0.047-0.57 0.070-0.859 0.070-2.898 0-5.25-2.352-5.25-5.25 0-0.992 0.289-1.961 0.813-2.789-2.078 0.617-3.562 2.523-3.562 4.789 0 2.758 2.242 5 5 5 1.508 0 2.922-0.688 3.859-1.82zM11.445 9.516c-0.977 2.117-3.117 3.484-5.445 3.484-3.305 0-6-2.695-6-6 0-3.242 2.539-5.875 5.773-5.992 0.219-0.008 0.398 0.117 0.477 0.305 0.086 0.195 0.031 0.422-0.117 0.563-0.891 0.813-1.383 1.922-1.383 3.125 0 2.344 1.906 4.25 4.25 4.25 0.617 0 1.211-0.133 1.781-0.398 0.195-0.086 0.414-0.047 0.563 0.102s0.187 0.375 0.102 0.563z"></path>
      </symbol>
      <symbol id="icon-react" viewBox="0 0 128 128">
        <circle style="fill: currentColor" cx="64" cy="64" r="11.4"></circle><path style="fill: currentColor" d="M107.3 45.2c-2.2-.8-4.5-1.6-6.9-2.3.6-2.4 1.1-4.8 1.5-7.1 2.1-13.2-.2-22.5-6.6-26.1-1.9-1.1-4-1.6-6.4-1.6-7 0-15.9 5.2-24.9 13.9-9-8.7-17.9-13.9-24.9-13.9-2.4 0-4.5.5-6.4 1.6-6.4 3.7-8.7 13-6.6 26.1.4 2.3.9 4.7 1.5 7.1-2.4.7-4.7 1.4-6.9 2.3C8.2 50 1.4 56.6 1.4 64s6.9 14 19.3 18.8c2.2.8 4.5 1.6 6.9 2.3-.6 2.4-1.1 4.8-1.5 7.1-2.1 13.2.2 22.5 6.6 26.1 1.9 1.1 4 1.6 6.4 1.6 7.1 0 16-5.2 24.9-13.9 9 8.7 17.9 13.9 24.9 13.9 2.4 0 4.5-.5 6.4-1.6 6.4-3.7 8.7-13 6.6-26.1-.4-2.3-.9-4.7-1.5-7.1 2.4-.7 4.7-1.4 6.9-2.3 12.5-4.8 19.3-11.4 19.3-18.8s-6.8-14-19.3-18.8zM92.5 14.7c4.1 2.4 5.5 9.8 3.8 20.3-.3 2.1-.8 4.3-1.4 6.6-5.2-1.2-10.7-2-16.5-2.5-3.4-4.8-6.9-9.1-10.4-13 7.4-7.3 14.9-12.3 21-12.3 1.3 0 2.5.3 3.5.9zM81.3 74c-1.8 3.2-3.9 6.4-6.1 9.6-3.7.3-7.4.4-11.2.4-3.9 0-7.6-.1-11.2-.4-2.2-3.2-4.2-6.4-6-9.6-1.9-3.3-3.7-6.7-5.3-10 1.6-3.3 3.4-6.7 5.3-10 1.8-3.2 3.9-6.4 6.1-9.6 3.7-.3 7.4-.4 11.2-.4 3.9 0 7.6.1 11.2.4 2.2 3.2 4.2 6.4 6 9.6 1.9 3.3 3.7 6.7 5.3 10-1.7 3.3-3.4 6.6-5.3 10zm8.3-3.3c1.5 3.5 2.7 6.9 3.8 10.3-3.4.8-7 1.4-10.8 1.9 1.2-1.9 2.5-3.9 3.6-6 1.2-2.1 2.3-4.2 3.4-6.2zM64 97.8c-2.4-2.6-4.7-5.4-6.9-8.3 2.3.1 4.6.2 6.9.2 2.3 0 4.6-.1 6.9-.2-2.2 2.9-4.5 5.7-6.9 8.3zm-18.6-15c-3.8-.5-7.4-1.1-10.8-1.9 1.1-3.3 2.3-6.8 3.8-10.3 1.1 2 2.2 4.1 3.4 6.1 1.2 2.2 2.4 4.1 3.6 6.1zm-7-25.5c-1.5-3.5-2.7-6.9-3.8-10.3 3.4-.8 7-1.4 10.8-1.9-1.2 1.9-2.5 3.9-3.6 6-1.2 2.1-2.3 4.2-3.4 6.2zM64 30.2c2.4 2.6 4.7 5.4 6.9 8.3-2.3-.1-4.6-.2-6.9-.2-2.3 0-4.6.1-6.9.2 2.2-2.9 4.5-5.7 6.9-8.3zm22.2 21l-3.6-6c3.8.5 7.4 1.1 10.8 1.9-1.1 3.3-2.3 6.8-3.8 10.3-1.1-2.1-2.2-4.2-3.4-6.2zM31.7 35c-1.7-10.5-.3-17.9 3.8-20.3 1-.6 2.2-.9 3.5-.9 6 0 13.5 4.9 21 12.3-3.5 3.8-7 8.2-10.4 13-5.8.5-11.3 1.4-16.5 2.5-.6-2.3-1-4.5-1.4-6.6zM7 64c0-4.7 5.7-9.7 15.7-13.4 2-.8 4.2-1.5 6.4-2.1 1.6 5 3.6 10.3 6 15.6-2.4 5.3-4.5 10.5-6 15.5C15.3 75.6 7 69.6 7 64zm28.5 49.3c-4.1-2.4-5.5-9.8-3.8-20.3.3-2.1.8-4.3 1.4-6.6 5.2 1.2 10.7 2 16.5 2.5 3.4 4.8 6.9 9.1 10.4 13-7.4 7.3-14.9 12.3-21 12.3-1.3 0-2.5-.3-3.5-.9zM96.3 93c1.7 10.5.3 17.9-3.8 20.3-1 .6-2.2.9-3.5.9-6 0-13.5-4.9-21-12.3 3.5-3.8 7-8.2 10.4-13 5.8-.5 11.3-1.4 16.5-2.5.6 2.3 1 4.5 1.4 6.6zm9-15.6c-2 .8-4.2 1.5-6.4 2.1-1.6-5-3.6-10.3-6-15.6 2.4-5.3 4.5-10.5 6-15.5 13.8 4 22.1 10 22.1 15.6 0 4.7-5.8 9.7-15.7 13.4z"></path>
      </symbol>
      <symbol id="icon-sass" viewBox="0 0 128 128">
        <path fill-rule="evenodd" clip-rule="evenodd" style="fill: currentColor" d="M1.219 56.156c0 .703.207 1.167.323 1.618.756 2.933 2.381 5.45 4.309 7.746 2.746 3.272 6.109 5.906 9.554 8.383 2.988 2.148 6.037 4.248 9.037 6.38.515.366 1.002.787 1.561 1.236-.481.26-.881.489-1.297.7-3.959 2.008-7.768 4.259-11.279 6.986-2.116 1.644-4.162 3.391-5.607 5.674-2.325 3.672-3.148 7.584-1.415 11.761.506 1.22 1.278 2.274 2.367 3.053.353.252.749.502 1.162.6 1.058.249 2.136.412 3.207.609l3.033-.002c3.354-.299 6.407-1.448 9.166-3.352 4.312-2.976 7.217-6.966 8.466-12.087.908-3.722.945-7.448-.125-11.153a11.696 11.696 0 00-.354-1.014c-.13-.333-.283-.657-.463-1.072l6.876-3.954.103.088c-.125.409-.258.817-.371 1.23-.817 2.984-1.36 6.02-1.165 9.117.208 3.3 1.129 6.389 3.061 9.146 1.562 2.23 5.284 2.313 6.944.075.589-.795 1.16-1.626 1.589-2.513 1.121-2.315 2.159-4.671 3.23-7.011l.187-.428c-.077 1.108-.167 2.081-.208 3.055-.064 1.521.025 3.033.545 4.48.445 1.238 1.202 2.163 2.62 2.326.97.111 1.743-.333 2.456-.896a10.384 10.384 0 002.691-3.199c1.901-3.491 3.853-6.961 5.576-10.54 1.864-3.871 3.494-7.855 5.225-11.792l.286-.698c.409 1.607.694 3.181 1.219 4.671.61 1.729 1.365 3.417 2.187 5.058.389.775.344 1.278-.195 1.928-2.256 2.72-4.473 5.473-6.692 8.223-.491.607-.98 1.225-1.389 1.888a3.701 3.701 0 00-.48 1.364 1.737 1.737 0 001.383 1.971 9.661 9.661 0 002.708.193c3.097-.228 5.909-1.315 8.395-3.157 3.221-2.386 4.255-5.642 3.475-9.501-.211-1.047-.584-2.065-.947-3.074-.163-.455-.174-.774.123-1.198 2.575-3.677 4.775-7.578 6.821-11.569.081-.157.164-.314.306-.482.663 3.45 1.661 6.775 3.449 9.792-.912.879-1.815 1.676-2.632 2.554-1.799 1.934-3.359 4.034-4.173 6.595-.35 1.104-.619 2.226-.463 3.405.242 1.831 1.742 3.021 3.543 2.604 3.854-.892 7.181-2.708 9.612-5.925 1.636-2.166 1.785-4.582 1.1-7.113-.188-.688-.411-1.365-.651-2.154.951-.295 1.878-.649 2.837-.868 4.979-1.136 9.904-.938 14.702.86 2.801 1.05 5.064 2.807 6.406 5.571 1.639 3.379.733 6.585-2.452 8.721-.297.199-.637.356-.883.605a.869.869 0 00-.205.67c.021.123.346.277.533.275 1.047-.008 1.896-.557 2.711-1.121 2.042-1.413 3.532-3.314 3.853-5.817l.063-.188-.077-1.63c-.031-.094.023-.187.016-.258-.434-3.645-2.381-6.472-5.213-8.688-3.28-2.565-7.153-3.621-11.249-3.788a25.401 25.401 0 00-9.765 1.503c-.897.325-1.786.71-2.688 1.073-.121-.219-.251-.429-.358-.646-.926-1.896-2.048-3.708-2.296-5.882-.176-1.544-.392-3.086-.025-4.613.353-1.469.813-2.913 1.246-4.362.223-.746.066-1.164-.646-1.5a2.854 2.854 0 00-.786-.258c-1.75-.254-3.476-.109-5.171.384-.6.175-1.036.511-1.169 1.175-.076.381-.231.746-.339 1.122-.443 1.563-.757 3.156-1.473 4.645-1.794 3.735-3.842 7.329-5.938 10.897-.227.385-.466.763-.752 1.23-.736-1.54-1.521-2.922-1.759-4.542-.269-1.832-.481-3.661-.025-5.479.339-1.356.782-2.687 1.19-4.025.193-.636.104-.97-.472-1.305-.291-.169-.62-.319-.948-.368a11.643 11.643 0 00-5.354.438c-.543.176-.828.527-.994 1.087-.488 1.652-.904 3.344-1.589 4.915-2.774 6.36-5.628 12.687-8.479 19.013-.595 1.321-1.292 2.596-1.963 3.882-.17.326-.418.613-.63.919-.17-.201-.236-.339-.235-.477.005-.813-.092-1.65.063-2.436a172.189 172.189 0 011.578-7.099c.47-1.946 1.017-3.874 1.538-5.807.175-.647.178-1.252-.287-1.796-.781-.911-2.413-1.111-3.381-.409l-.428.242.083-.69c.204-1.479.245-2.953-.161-4.41-.506-1.816-1.802-2.861-3.686-2.803-.878.027-1.8.177-2.613.497-3.419 1.34-6.048 3.713-8.286 6.568a2.592 2.592 0 01-.757.654c-2.893 1.604-5.795 3.188-8.696 4.778l-3.229 1.769c-.866-.826-1.653-1.683-2.546-2.41-2.727-2.224-5.498-4.393-8.244-6.592-2.434-1.949-4.792-3.979-6.596-6.56-1.342-1.92-2.207-4.021-2.29-6.395-.105-3.025.753-5.789 2.293-8.362 1.97-3.292 4.657-5.934 7.611-8.327 3.125-2.53 6.505-4.678 10.008-6.639 4.901-2.743 9.942-5.171 15.347-6.774 5.542-1.644 11.165-2.585 16.965-1.929 2.28.258 4.494.78 6.527 1.895 1.557.853 2.834 1.97 3.428 3.716.586 1.718.568 3.459.162 5.204-.825 3.534-2.76 6.447-5.195 9.05-3.994 4.267-8.866 7.172-14.351 9.091a39.478 39.478 0 01-9.765 2.083c-2.729.229-5.401-.013-7.985-.962-1.711-.629-3.201-1.591-4.399-2.987-.214-.25-.488-.521-.887-.287-.391.23-.46.602-.329.979.219.626.421 1.278.762 1.838.857 1.405 2.107 2.424 3.483 3.298 2.643 1.681 5.597 2.246 8.66 2.377 4.648.201 9.183-.493 13.654-1.74 6.383-1.78 11.933-4.924 16.384-9.884 3.706-4.13 6.353-8.791 6.92-14.419.277-2.747-.018-5.438-1.304-7.944-1.395-2.715-3.613-4.734-6.265-6.125C68.756 18.179 64.588 17 60.286 17h-4.31c-5.21 0-10.247 1.493-15.143 3.274-3.706 1.349-7.34 2.941-10.868 4.703-7.683 3.839-14.838 8.468-20.715 14.833-2.928 3.171-5.407 6.67-6.833 10.79a40.494 40.494 0 00-1.111 3.746m27.839 36.013c-.333 4.459-2.354 8.074-5.657 11.002-1.858 1.646-3.989 2.818-6.471 3.23-.9.149-1.821.185-2.694-.188-1.245-.532-1.524-1.637-1.548-2.814-.037-1.876.62-3.572 1.521-5.186 1.176-2.104 2.9-3.708 4.741-5.206 2.9-2.361 6.046-4.359 9.268-6.245l.243-.1c.498 1.84.735 3.657.597 5.507zM54.303 70.98c-.235 1.424-.529 2.849-.945 4.229-1.438 4.777-3.285 9.406-5.282 13.973-.369.845-.906 1.616-1.373 2.417a1.689 1.689 0 01-.283.334c-.578.571-1.126.541-1.418-.206-.34-.868-.549-1.797-.729-2.716-.121-.617-.092-1.265-.13-1.897.039-4.494 1.41-8.578 3.736-12.38.959-1.568 2.003-3.062 3.598-4.054a6.27 6.27 0 011.595-.706c.85-.239 1.372.154 1.231 1.006zm17.164 21.868l6.169-7.203c.257 2.675-4.29 8.015-6.169 7.203zm19.703-4.847c-.436.25-.911.43-1.358.661-.409.212-.544-.002-.556-.354a2.385 2.385 0 01.093-.721c.833-2.938 2.366-5.446 4.647-7.486l.16-.082c1.085 3.035-.169 6.368-2.986 7.982z"></path>
      </symbol> 
        <symbol id="icon-sushi" fill="currentColor" x="0px" y="0px" viewBox="0 0 89 70"><path d="M59.625,55.584c-0.007,0-0.007,0.007-0.015,0.007c-0.087,0.04-0.198,0.071-0.301,0.08c0.056,0.031,0.127,0.007,0.198-0.016  c0.024,0,0.04-0.008,0.063-0.016c0.016,0,0.032-0.008,0.04-0.008h0.008c0.007,0,0.007,0,0.016,0L59.625,55.584z M39.458,22.062  c-0.04,0.031-0.047,0.055-0.063,0.071c-0.008,0.008-0.024,0.016-0.04,0.023c-0.016,0.008-0.023,0.016-0.032,0.04  c0,0-0.008,0-0.008,0.008c-0.008,0-0.008,0.008-0.008,0.008c-0.016,0-0.023,0.008-0.031,0.023c0,0,0,0,0,0.008  c-0.008,0-0.024,0.008-0.032,0.023c-0.008,0-0.008,0.008-0.016,0.016c-0.016,0.008-0.032,0.024-0.047,0.04v0.008  c0,0-0.008,0-0.008,0.008l-0.016,0.016c-0.007,0.016-0.023,0.031-0.039,0.047c-0.008,0.008-0.008,0.024-0.008,0.04h0.016  c0.008-0.016,0.024-0.024,0.04-0.04v-0.008c0.008-0.008,0.023-0.024,0.032-0.032c0.008-0.008,0.008-0.008,0.016-0.016  c0.008-0.007,0.024-0.023,0.032-0.031s0.008-0.008,0.016-0.016v-0.008c0.024-0.032,0.056-0.063,0.087-0.095  c0.016-0.016,0.04-0.04,0.056-0.055v-0.008c0-0.008,0.008-0.008,0.015-0.008c0,0,0.024-0.032,0.048-0.056c0,0,0,0,0-0.007H39.458z   M43.177,19.877c-0.039-0.039-0.095-0.063-0.158-0.055c0.079,0.024,0.158,0.064,0.229,0.119  C43.225,19.917,43.201,19.893,43.177,19.877z"></path><path d="M58.888,61.393c0,0-0.017,0.008-0.026,0.017c0.009,0,0.009,0,0.018,0c0.026,0,0.043-0.009,0.069-0.017H58.888z"></path>
        <path d="M59.625,55.584c-0.007,0-0.007,0.007-0.015,0.007c-0.087,0.04-0.198,0.071-0.301,0.08c0.056,0.031,0.127,0.007,0.198-0.016  c0.024,0,0.04-0.008,0.063-0.016c0.016,0,0.032-0.008,0.04-0.008h0.008c0.007,0,0.007,0,0.016,0L59.625,55.584z M43.177,19.877  c-0.039-0.039-0.095-0.063-0.158-0.055c0.079,0.024,0.158,0.064,0.229,0.119C43.225,19.917,43.201,19.893,43.177,19.877z"></path>
        <path d="M39.299,22.173c0,0.016,0,0.024-0.008,0.032c0,0,0,0,0.008,0c0.007-0.024,0.016-0.04,0.032-0.063  C39.323,22.149,39.307,22.157,39.299,22.173z M39.251,22.292V22.3c0,0.008,0,0.008-0.008,0.016c0.008-0.008,0.008-0.008,0.016-0.016  v-0.008H39.251z M39.458,22.062c-0.04,0.031-0.047,0.055-0.063,0.071c-0.008,0.008-0.024,0.016-0.04,0.023  c-0.016,0.008-0.023,0.016-0.032,0.04c0,0-0.008,0-0.008,0.008c-0.008,0-0.008,0.008-0.008,0.008c-0.016,0-0.023,0.008-0.031,0.023  c0,0,0,0,0,0.008c-0.016,0.016-0.024,0.032-0.024,0.047h0.008c0.024-0.032,0.056-0.063,0.087-0.095  c0.016-0.016,0.04-0.04,0.056-0.055v-0.008c0-0.008,0.008-0.008,0.015-0.008c0,0,0.024-0.032,0.048-0.056c0,0,0,0,0-0.007H39.458z   M39.417,21.951H39.41c0,0.016,0,0.032-0.008,0.047v0.008c0,0,0,0,0.008,0c0.007-0.016,0.016-0.032,0.031-0.048h0.008  c0-0.008,0.008-0.023,0.016-0.032C39.449,21.943,39.441,21.951,39.417,21.951z M59.563,55.909l0.007,0.008v-0.008H59.563z   M59.444,55.75h-0.008l-0.008-0.016l-0.007-0.008v0.111l0.095,0.047c0.008,0,0.008,0,0.008,0.008c0.015,0,0.023,0.008,0.04,0.016  c-0.016-0.024-0.032-0.048-0.056-0.08L59.444,55.75z M59.625,55.711c-0.007,0-0.007,0-0.007,0l0.007,0.04  c0-0.016,0-0.032,0.009-0.04C59.625,55.711,59.625,55.711,59.625,55.711z M59.618,55.972v-0.007H59.61l-0.024-0.024  c-0.008,0.008,0,0.008,0,0.008v0.008c0,0.008,0.008,0.024,0.008,0.032c0.008,0,0.008,0,0.016,0h0.024L59.618,55.972z M59.625,55.584  c-0.007,0-0.007,0.007-0.015,0.007V55.6c0,0.008,0.008,0.016,0.008,0.032c0.007,0,0.007,0,0.016,0L59.625,55.584z"></path>
        <path d="M59.625,55.584c-0.007,0-0.007,0.007-0.015,0.007V55.6c0,0.008,0.008,0.016,0.008,0.032c0.007,0,0.007,0,0.016,0  L59.625,55.584z M59.618,55.972v-0.007H59.61c-0.016-0.008-0.016-0.008-0.024-0.016c0,0-0.008,0,0-0.008l-0.008-0.016v-0.008H59.57  v-0.008h-0.007c-0.016-0.024-0.032-0.048-0.056-0.08l-0.063-0.079h-0.008l-0.008-0.016l-0.007-0.008v0.261h0.174  c0.008,0,0.008,0,0.016,0h0.024L59.618,55.972z M59.625,55.711c-0.007,0-0.007,0-0.007,0l0.007,0.04c0-0.016,0-0.032,0.009-0.04  C59.625,55.711,59.625,55.711,59.625,55.711z M39.417,21.951H39.41c0,0.016,0,0.032-0.008,0.047v0.008c0,0,0,0,0.008,0  c0.007-0.016,0.016-0.032,0.031-0.048h0.008c0-0.008,0.008-0.023,0.016-0.032C39.449,21.943,39.441,21.951,39.417,21.951z   M39.386,22.038c0-0.016,0-0.031-0.016-0.047c0.008-0.008,0-0.008,0-0.016c0-0.007-0.008-0.016-0.008-0.016v-0.008h-0.008  c-0.023,0-0.032,0.071-0.04,0.143c0,0.032-0.008,0.055-0.016,0.079c0,0.016,0,0.024-0.008,0.032c0,0,0,0,0.008,0  c0.007-0.016,0.032-0.048,0.055-0.079c0.008-0.016,0.016-0.024,0.024-0.032c0,0,0.008,0,0.008-0.008  c0.008-0.016,0.016-0.032,0.016-0.047c0.008-0.008,0.008-0.008,0-0.016C39.394,22.03,39.394,22.03,39.386,22.038z M39.458,22.062  c-0.04,0.031-0.047,0.055-0.063,0.071c-0.008,0.008-0.024,0.016-0.04,0.023c-0.016,0.008-0.023,0.016-0.032,0.04  c0,0-0.008,0-0.008,0.008c-0.008,0-0.008,0.008-0.008,0.008c-0.023,0.023-0.031,0.055-0.047,0.079  c0.024-0.032,0.056-0.063,0.087-0.095c0.016-0.016,0.04-0.04,0.056-0.055v-0.008c0-0.008,0.008-0.008,0.015-0.008  c0,0,0.024-0.032,0.048-0.056c0,0,0,0,0-0.007H39.458z M39.251,22.3c0,0.008,0,0.008-0.008,0.016  c0.008-0.008,0.008-0.008,0.016-0.016C39.251,22.3,39.251,22.3,39.251,22.3z"></path>
        <path d="M39.259,22.3v-0.008h-0.008c-0.008,0-0.016,0-0.023-0.008c-0.016,0.008-0.032,0.024-0.047,0.04v0.008  c0,0-0.008,0-0.008,0.008l-0.016,0.016c0.008,0,0.008,0,0.016,0c0.008-0.008,0.008-0.008,0.016-0.008h0.024  c0.024,0,0.055,0,0.079-0.007C39.307,22.323,39.283,22.315,39.259,22.3z M39.354,21.951l0.008,0.008v-0.008H39.354z M39.481,22.094  c0-0.008-0.009-0.016-0.016-0.024c0.016-0.016,0.023-0.032,0.039-0.04c0-0.008,0-0.008-0.007,0  c-0.008,0.008-0.016,0.023-0.032,0.032h-0.008c0-0.009,0-0.009,0-0.009c-0.008-0.007-0.016-0.007-0.016-0.016  c-0.016-0.016-0.031-0.031-0.031-0.031c0.007-0.016,0.016-0.032,0.031-0.048h0.008c0-0.008,0.008-0.023,0.016-0.032  c-0.016,0.016-0.024,0.024-0.048,0.024H39.41c0,0.016,0,0.032-0.008,0.047h-0.008c0-0.008-0.008-0.016-0.024-0.024  c0,0.008,0.008,0.008,0,0.016c0.016,0.016,0.016,0.032,0.016,0.047c0.008-0.008,0.008-0.008,0.016-0.016  c0.008,0.008,0.008,0.008,0,0.016c0.008,0.008,0.008,0.024,0.008,0.032c-0.008,0.016-0.016,0.024-0.032,0.024  c-0.008,0-0.008,0-0.016,0c-0.016,0-0.031-0.024-0.047,0c0,0.032-0.008,0.055-0.016,0.079c0,0.016,0,0.024-0.008,0.032  c0,0,0,0,0.008,0c0.007,0,0.007,0,0.016,0c0.008-0.008,0.023-0.008,0.032-0.008c0.071-0.008,0.142-0.008,0.214-0.016  c0.023,0,0.047-0.008,0.071-0.008v-0.055C39.631,22.102,39.481,22.094,39.481,22.094z M59.625,55.711c-0.007,0-0.007,0-0.007,0  l0.007,0.04c0-0.016,0-0.032,0.009-0.04C59.625,55.711,59.625,55.711,59.625,55.711z M59.618,55.972v-0.007H59.61  c-0.016-0.008-0.016-0.008-0.024-0.016c0,0-0.008,0,0-0.008l-0.008-0.016v-0.008H59.57v-0.008h-0.007  c-0.016-0.024-0.032-0.048-0.056-0.08l-0.063-0.079h-0.008l-0.008-0.016l-0.007-0.008v0.261h0.174c0.008,0,0.008,0,0.016,0h0.024  L59.618,55.972z M59.625,55.584c-0.007,0-0.007,0.007-0.015,0.007V55.6c0,0.008,0.008,0.016,0.008,0.032c0.007,0,0.007,0,0.016,0  L59.625,55.584z"></path>
        <path d="M59.625,55.584c-0.007,0-0.007,0.007-0.015,0.007V55.6c0,0.008,0.008,0.016,0.008,0.032c0.007,0,0.007,0,0.016,0  L59.625,55.584z M59.618,55.972v-0.007H59.61c-0.016-0.008-0.016-0.008-0.024-0.016c0,0-0.008,0,0-0.008l-0.008-0.016v-0.008H59.57  v-0.008h-0.007c-0.016-0.024-0.032-0.048-0.056-0.08l-0.063-0.079h-0.008l-0.008-0.016l-0.007-0.008v0.261h0.174  c0.008,0,0.008,0,0.016,0h0.024L59.618,55.972z M59.625,55.711c-0.007,0-0.007,0-0.007,0l0.007,0.04c0-0.016,0-0.032,0.009-0.04  C59.625,55.711,59.625,55.711,59.625,55.711z M39.481,22.094c0-0.008-0.009-0.016-0.016-0.024c0,0,0,0,0-0.007h-0.008  c0-0.009,0-0.009,0-0.009c-0.008-0.007-0.016-0.007-0.016-0.016c-0.016-0.016-0.031-0.031-0.031-0.031c-0.008,0-0.008,0-0.008,0  s0-0.008-0.008-0.008c0-0.008-0.008-0.016-0.024-0.024c0-0.007-0.008-0.016-0.008-0.016l-0.008-0.008  c-0.023,0-0.032,0.071-0.04,0.143c0,0.032-0.008,0.055-0.016,0.079c0,0.016,0,0.024-0.008,0.032c0,0,0,0,0.008,0  c-0.008,0.016-0.016,0.024-0.024,0.031c-0.016,0.008-0.024,0.024-0.032,0.032c-0.008,0-0.008,0.008-0.016,0.016  c-0.016,0.008-0.032,0.024-0.047,0.04v0.008c0.007,0,0.007,0.008,0.007,0.016c0,0,0,0.008,0.008,0.016  c0.008,0.032,0.016,0.063,0.024,0.095c0.016-0.072,0.229-0.198,0.34-0.277c0.032-0.032,0.055-0.047,0.071-0.063  C39.631,22.102,39.481,22.094,39.481,22.094z M39.156,22.355h-0.007c-0.016,0.016-0.032,0.024-0.032,0.047  c-0.008,0.008-0.008,0.024-0.008,0.04h0.016c0.008-0.016,0.024-0.024,0.04-0.04v-0.008c0.008-0.016,0.008-0.024,0.008-0.04  c0-0.008,0-0.008,0-0.016L39.156,22.355z M39.125,22.743h0.024v-0.071C39.141,22.695,39.133,22.719,39.125,22.743z"></path>
        <path d="M59.009,61.471c-0.008,0-0.008,0-0.008,0l0.008,0.043c0-0.018,0-0.035,0.009-0.043  C59.009,61.471,59.009,61.471,59.009,61.471z M59,61.757v-0.008h-0.008c-0.018-0.009-0.018-0.009-0.026-0.018c0,0-0.008,0,0-0.009  l-0.008-0.017v-0.009h-0.009v-0.009H58.94c-0.018-0.026-0.035-0.052-0.061-0.087l-0.069-0.086h-0.009l-0.009-0.018l-0.008-0.009  v0.287h0.191c0.008,0,0.008,0,0.018,0h0.026L59,61.757z M59.009,61.332C59,61.332,59,61.34,58.992,61.34v0.008  c0,0.009,0.008,0.018,0.008,0.035c0.008,0,0.008,0,0.018,0L59.009,61.332z"></path>
        <path d="M59.009,61.471c-0.008,0-0.008,0-0.008,0l0.008,0.043c0-0.018,0-0.035,0.009-0.043  C59.009,61.471,59.009,61.471,59.009,61.471z M59,61.757v-0.008h-0.008c-0.018-0.009-0.018-0.009-0.026-0.018c0,0-0.008,0,0-0.009  l-0.008-0.017v-0.009h-0.009v-0.009H58.94c-0.018-0.026-0.035-0.052-0.061-0.087l-0.069-0.086h-0.009l-0.009-0.018l-0.008-0.009  v0.287h0.191c0.008,0,0.008,0,0.018,0h0.026L59,61.757z M59.009,61.332C59,61.332,59,61.34,58.992,61.34v0.008  c0,0.009,0.008,0.018,0.008,0.035c0.008,0,0.008,0,0.018,0L59.009,61.332z"></path><path d="M59.009,61.332C59,61.332,59,61.34,58.992,61.34v0.008c0,0.009,0.008,0.018,0.008,0.035c0.008,0,0.008,0,0.018,0  L59.009,61.332z M59,61.757v-0.008h-0.008c-0.018-0.009-0.018-0.009-0.026-0.018c0,0-0.008,0,0-0.009l-0.008-0.017v-0.009h-0.009  v-0.009H58.94c-0.018-0.026-0.035-0.052-0.061-0.087l-0.069-0.086h-0.009l-0.009-0.018l-0.008-0.009v0.287h0.191  c0.008,0,0.008,0,0.018,0h0.026L59,61.757z M59.009,61.471c-0.008,0-0.008,0-0.008,0l0.008,0.043c0-0.018,0-0.035,0.009-0.043  C59.009,61.471,59.009,61.471,59.009,61.471z"></path><path d="M59.009,61.471v0.017l0.009-0.017C59.009,61.471,59.009,61.471,59.009,61.471z M59.009,61.332  C59,61.332,59,61.34,58.992,61.34v0.008c0,0.009,0.008,0.018,0.008,0.035c0.008,0,0.008,0,0.018,0L59.009,61.332z"></path><path d="M59.009,61.471v0.017l0.009-0.017C59.009,61.471,59.009,61.471,59.009,61.471z"></path><path d="M59.009,61.471c-0.008,0-0.008,0-0.008,0l0.008,0.043c0-0.018,0-0.035,0.009-0.043  C59.009,61.471,59.009,61.471,59.009,61.471z"></path><path d="M59.009,61.332l-0.017,0.017c0,0.018,0,0.026-0.018,0.035c0.008,0,0.008,0,0.018,0H59c0.008,0,0.008,0,0.018,0  L59.009,61.332z M59.009,61.471c-0.008,0-0.008,0-0.008,0l0.008,0.043c0-0.018,0-0.035,0.009-0.043  C59.009,61.471,59.009,61.471,59.009,61.471z"></path><path d="M59.018,61.384c-0.009,0-0.009,0-0.018,0h-0.008c-0.009,0-0.026,0.009-0.044,0.009c-0.026,0.008-0.043,0.017-0.069,0.017  c-0.078,0.026-0.156,0.052-0.217,0.018c0.113-0.009,0.235-0.043,0.331-0.087c0.008,0,0.008-0.008,0.017-0.008L59.018,61.384z"></path><polygon points="371.931,245.705 371.924,245.705 371.92,245.705 371.92,245.708 371.916,245.708 371.917,245.723 371.927,245.722   "></polygon><path d="M211.97,98.38c0.15-0.15,0.29-0.28,0.44-0.39c-0.1,0.06-0.21,0.12-0.29,0.18c0,0.01-0.12,0.01-0.12,0.01v0.01  c0,0.03,0.04,0.06,0.01,0.09C211.99,98.3,211.98,98.33,211.97,98.38z"></path><path d="M59.009,61.471c-0.008,0-0.008,0-0.008,0l0.008,0.043c0-0.018,0-0.035,0.009-0.043  C59.009,61.471,59.009,61.471,59.009,61.471z M59,61.757v-0.008h-0.008c-0.018-0.009-0.018-0.009-0.026-0.018c0,0-0.008,0,0-0.009  l-0.008-0.017v-0.009h-0.009v-0.009H58.94c-0.018-0.026-0.035-0.052-0.061-0.087l-0.069-0.086h-0.009l-0.009-0.018l-0.008-0.009  v0.287h0.191c0.008,0,0.008,0,0.018,0h0.026L59,61.757z M59.009,61.332C59,61.332,59,61.34,58.992,61.34v0.008  c0,0.009,0.008,0.018,0.008,0.035c0.008,0,0.008,0,0.018,0L59.009,61.332z"></path><path d="M59.009,61.332C59,61.332,59,61.34,58.992,61.34v0.008c0,0.009,0.008,0.018,0.008,0.035c0.008,0,0.008,0,0.018,0  L59.009,61.332z M59,61.757v-0.008h-0.008c-0.018-0.009-0.018-0.009-0.026-0.018c0,0-0.008,0,0-0.009l-0.008-0.017v-0.009h-0.009  v-0.009H58.94c-0.018-0.026-0.035-0.052-0.061-0.087l-0.069-0.086h-0.009l-0.009-0.018l-0.008-0.009v0.287h0.191  c0.008,0,0.008,0,0.018,0h0.026L59,61.757z M59.009,61.471c-0.008,0-0.008,0-0.008,0l0.008,0.043c0-0.018,0-0.035,0.009-0.043  C59.009,61.471,59.009,61.471,59.009,61.471z"></path><path d="M59.009,61.471c-0.008,0-0.008,0-0.008,0l0.008,0.043c0-0.018,0-0.035,0.009-0.043  C59.009,61.471,59.009,61.471,59.009,61.471z M59,61.757v-0.008h-0.008c-0.018-0.009-0.018-0.009-0.026-0.018c0,0-0.008,0,0-0.009  l-0.008-0.017v-0.009h-0.009v-0.009H58.94c-0.018-0.026-0.035-0.052-0.061-0.087l-0.069-0.086h-0.009l-0.009-0.018l-0.008-0.009  v0.287h0.191c0.008,0,0.008,0,0.018,0h0.026L59,61.757z M59.009,61.332C59,61.332,59,61.34,58.992,61.34v0.008  c0,0.009,0.008,0.018,0.008,0.035c0.008,0,0.008,0,0.018,0L59.009,61.332z"></path><path d="M59.009,61.332C59,61.332,59,61.34,58.992,61.34v0.008c0,0.009,0.008,0.018,0.008,0.035c0.008,0,0.008,0,0.018,0  L59.009,61.332z M59,61.757v-0.008h-0.008c-0.018-0.009-0.018-0.009-0.026-0.018c0,0-0.008,0,0-0.009l-0.008-0.017v-0.009h-0.009  v-0.009H58.94c-0.018-0.026-0.035-0.052-0.061-0.087l-0.069-0.086h-0.009l-0.009-0.018l-0.008-0.009v0.287h0.191  c0.008,0,0.008,0,0.018,0h0.026L59,61.757z M59.009,61.471c-0.008,0-0.008,0-0.008,0l0.008,0.043c0-0.018,0-0.035,0.009-0.043  C59.009,61.471,59.009,61.471,59.009,61.471z"></path><path d="M59.009,61.332C59,61.332,59,61.34,58.992,61.34v0.008c0,0.009,0.008,0.018,0.008,0.035c0.008,0,0.008,0,0.018,0  L59.009,61.332z M59,61.757v-0.008h-0.008c-0.018-0.009-0.018-0.009-0.026-0.018c0,0-0.008,0,0-0.009l-0.008-0.017v-0.009h-0.009  v-0.009H58.94c-0.018-0.026-0.035-0.052-0.061-0.087l-0.069-0.086h-0.009l-0.009-0.018l-0.008-0.009v0.287h0.191  c0.008,0,0.008,0,0.018,0h0.026L59,61.757z M59.009,61.471c-0.008,0-0.008,0-0.008,0l0.008,0.043c0-0.018,0-0.035,0.009-0.043  C59.009,61.471,59.009,61.471,59.009,61.471z"></path><path d="M59.009,61.471c-0.008,0-0.008,0-0.008,0l0.008,0.043c0-0.018,0-0.035,0.009-0.043  C59.009,61.471,59.009,61.471,59.009,61.471z M59,61.757v-0.008h-0.008c-0.018-0.009-0.018-0.009-0.026-0.018c0,0-0.008,0,0-0.009  l-0.008-0.017v-0.009h-0.009v-0.009H58.94c-0.018-0.026-0.035-0.052-0.061-0.087l-0.069-0.086h-0.009l-0.009-0.018l-0.008-0.009  v0.287h0.191c0.008,0,0.008,0,0.018,0h0.026L59,61.757z M59.009,61.332C59,61.332,59,61.34,58.992,61.34v0.008  c0,0.009,0,0.035,0,0.035H59c0.008,0,0.008,0,0.018,0L59.009,61.332z"></path><path d="M20.967,42.571c-0.016,0-0.023,0-0.04-0.008c-0.032,0-0.063-0.008-0.095-0.008c0.071,0.008,0.142,0.016,0.213,0.032  C21.015,42.579,20.991,42.579,20.967,42.571z M59.618,55.711l0.007,0.04c0-0.016,0-0.032,0.009-0.04c-0.009,0-0.009,0-0.009,0  C59.618,55.711,59.618,55.711,59.618,55.711z M59.539,55.758l0.08-0.008h-0.08V55.758z M59.507,55.655  c0.024,0,0.04-0.008,0.063-0.016c0.016,0,0.032-0.008,0.04-0.008h0.008c0.007,0,0.007,0,0.016,0l-0.009-0.047  c-0.007,0-0.007,0.007-0.015,0.007c-0.087,0.04-0.198,0.071-0.301,0.08C59.365,55.703,59.436,55.679,59.507,55.655z M59.579,55.917  c0-0.047,0-0.095-0.008-0.095c-0.007,0-0.016-0.008-0.032-0.016l-0.007-0.023l-0.008-0.016c-0.008,0-0.024,0-0.032-0.008  l-0.071-0.071v0.023c0,0.023-0.087,0-0.182,0.023c0.063,0.032,0.126,0.063,0.182,0.103v0.15h0.174c0.008,0,0.008,0,0.016,0h0.024  v-0.04c-0.016-0.008-0.032-0.016-0.048-0.024L59.579,55.917z M43.019,19.822c0.079,0.024,0.158,0.064,0.229,0.119  c-0.023-0.024-0.047-0.048-0.071-0.064C43.138,19.838,43.083,19.814,43.019,19.822z M39.465,22.07  c0.016-0.016,0.023-0.032,0.039-0.04c0-0.008,0.009-0.016,0.009-0.016l-0.016,0.008v0.008c-0.008,0.008-0.016,0.023-0.032,0.032  h-0.008c0-0.009,0-0.009,0-0.009c-0.008-0.007-0.016-0.007-0.016-0.016c0.024-0.023,0.04-0.04,0.063-0.063  c-0.023,0-0.032-0.007-0.055-0.016c0-0.008,0.008-0.023,0.016-0.032c-0.016,0.016-0.024,0.024-0.048,0.024H39.41  c0,0.016,0,0.032-0.008,0.047h-0.008c0-0.008-0.008-0.016-0.024-0.024c0-0.007-0.008-0.016-0.008-0.016v-0.008h-0.008  c-0.023,0-0.032,0.071-0.04,0.143c0,0.032-0.008,0.055-0.016,0.079c0,0.016,0,0.024-0.008,0.032c0,0,0,0,0.008,0  c-0.008,0.016-0.016,0.024-0.024,0.031c-0.016,0.008-0.024,0.024-0.032,0.032c-0.008,0-0.008,0.008-0.016,0.016  c-0.016,0.008-0.032,0.024-0.047,0.04v0.008c0,0-0.008,0-0.008,0.008l-0.016,0.016h-0.007c-0.016,0.016-0.032,0.024-0.032,0.047  c-0.008,0.008-0.008,0.024-0.008,0.04h0.016c0.008-0.016,0.024-0.024,0.04-0.04v-0.008c0.008-0.008,0.023-0.024,0.032-0.032  c0.008,0.032,0.016,0.063,0.024,0.095c0.016-0.072,0.229-0.198,0.34-0.277c0.023,0,0.047-0.008,0.071-0.008v-0.055  c0-0.016-0.15-0.024-0.15-0.024C39.481,22.085,39.473,22.078,39.465,22.07z M39.149,22.743v-0.071  c-0.008,0.023-0.016,0.047-0.024,0.071H39.149z M20.927,42.563c-0.032,0-0.063-0.008-0.095-0.008  c0.071,0.008,0.142,0.016,0.213,0.032c-0.031-0.008-0.055-0.008-0.079-0.016C20.951,42.571,20.943,42.571,20.927,42.563z"></path><path d="M93.449,27.698c-3.847-4.932-8.502-9.261-13.734-12.688c-5.129-3.348-10.686-5.486-16.599-6.997  c-3.246-0.832-6.602-1.48-9.965-1.433C49.685,6.643,46.328,7.569,42.9,7.972c-2.937,0.349-5.794,0.903-8.493,2.153  c-1.219,0.562-2.351,1.29-3.585,1.829c-1.346,0.585-2.715,1.1-4.053,1.686c-1.599,0.696-3.19,1.488-4.567,2.565  c-1.425,1.108-2.129,2.382-2.945,3.942c-0.871,1.686-2.667,2.873-3.958,4.25c-0.625,0.673-1.425,1.441-1.741,2.327  c-0.174,0.475-0.491,0.515-0.974,0.76c-0.903,0.458-1.773,0.981-2.581,1.591c-0.768,0.586-1.472,1.258-2.026,2.05  c-0.601,0.862-0.934,1.86-1.52,2.731c-0.886,1.337-1.781,2.667-2.176,4.242c-0.412,1.623-0.19,3.198,0.134,4.812  c0.918,0.048,1.796,0.048,2.708-0.15c0.617-0.135,1.226-0.317,1.836-0.483c0.522-0.15,0.657-0.317,1.068,0.079  c0.293,0.286,0.586,0.562,0.887,0.839c2.074,1.908,4.29,3.666,6.633,5.232c4.163,2.771,8.73,4.923,13.528,6.356  c4.187,1.25,8.524,1.956,12.894,2.161c2.549,0.119,5.114,0.071,7.663-0.143c1.37-0.11,2.73-0.263,4.092-0.461  C56.792,56.176,59.246,56,59.594,56H60v-0.163c0-0.04-0.119-0.071-0.182-0.103c0.095-0.023,0.182,0,0.182-0.023v-0.023l-0.219,0.071  c0.008,0.008-0.121,0.008-0.113,0.008l-0.065,0.016l0.178,0.023C59.797,55.813,60,55.822,60,55.822s0,0.047,0,0.095l-0.02,0.008  C59.996,55.933,60,55.94,60,55.948V56h-0.19c-0.056,0,5.018,2.828,7.495,1.902c0.918-0.349,1.535-1.19,2.161-1.911  c0.918-1.061,1.757-2.162,2.612-3.279c1.591-2.058,3.012-4.425,4.856-6.27c1.044-1.029,2.313-1.797,3.342-2.834  c0.618-0.618,1.082-1.338,1.572-2.05c-0.57-0.744-1.292-1.884-1.925-2.723c0.807-0.507,1.669-1.03,2.263-1.394  c1.781-1.092,3.57-2.192,5.351-3.285c2.612-1.599,4.82-2.992,6.625-5.564L93.449,27.698z M78.148,17.036  c-2.185,0.887-3.744,2.588-4.915,4.591c-0.657,1.124-1.211,2.312-1.758,3.491c-0.633,1.353-1.646,2.825-2.026,4.258  c-0.103-0.08-0.213-0.15-0.316-0.23c-1.401-0.997-2.834-1.916-4.29-2.746c0.451-1.243,0.53-2.636,0.99-3.903  c0.482-1.345,1.1-2.651,1.86-3.871c1.203-1.931,3.087-4.203,5.557-4.313C74.903,15.104,76.541,16.022,78.148,17.036z M64.724,11.218  c1.694,0.482,3.396,0.958,5.034,1.599c-3.625,2.454-6.206,8.145-6.887,12.514c-1.884-0.981-3.799-1.812-5.723-2.493  C57.75,18.769,58.874,13.157,64.724,11.218z M55.501,9.477c1.789,0.142,3.625,0.411,5.431,0.823  c-4.227,3.063-5.304,8.327-5.842,11.874c-1.908-0.562-3.934-1.148-6.008-1.615c0.159-0.293,0.238-2.327,0.491-3.372  c0.277-1.179,0.775-2.304,1.424-3.325C52.13,12.088,53.697,10.553,55.501,9.477z M18.964,23.526c0.697-0.633,1.781-1.354,2.248-2.2  c0.222-0.372,0.309-0.808,0.546-1.179c0.443-0.705,1.069-1.275,1.726-1.773c1.44-1.068,3.103-1.813,4.749-2.509  c1.884-0.784,3.752-1.528,5.541-2.509c1.654-0.91,3.412-1.599,5.248-2.026c2.177-0.515,4.417-0.665,6.617-1.037  c1.243-0.214,2.47-0.443,3.712-0.633c0.554-0.087,1.1-0.198,1.654-0.261C51.607,9.335,51.552,10,51.434,10h-0.016  c-2.422,2-4.33,5.785-4.219,9.957c0,0.056,0.008,0.139,0.016,0.186c-2.787-0.523-5.612-0.774-8.438-0.49  c-2.889,0.293-5.715,1.019-8.597,1.32c-2.343,0.261-4.662,0.722-6.862,1.585c-2.28,0.895-4.362,2.187-6.633,3.113  C17.239,24.848,18.228,24.183,18.964,23.526z M43.249,19.941c-0.071-0.055-0.15-0.095-0.229-0.119  c0.063-0.008,0.119,0.016,0.158,0.055C43.201,19.893,43.225,19.917,43.249,19.941z M39.125,22.442h-0.016  c-0.016,0-0.008-0.016,0.008-0.04c0-0.023,0.016-0.032,0.032-0.047h0.007l0.016-0.016c0-0.008,0.008-0.008,0.008-0.008v-0.008  c0.016-0.016,0.031-0.032,0.047-0.04c0.008-0.008,0.008-0.016,0.016-0.016c0.008-0.008,0.016-0.023,0.032-0.032  c0.008-0.007,0.016-0.016,0.024-0.031c-0.008,0-0.008,0-0.008,0c0.008-0.008,0.008-0.016,0.008-0.032  c0.007-0.024,0.016-0.047,0.016-0.079c0.008-0.071,0.016-0.143,0.04-0.143h0.008v0.008c0,0,0.008,0.008,0.008,0.016  c0.016,0.008,0.024,0.016,0.024,0.024h0.008c0.008-0.016,0.008-0.031,0.008-0.047h0.007c0.024,0,0.032-0.008,0.048-0.024  c-0.008,0.008-0.016,0.024-0.016,0.032c0.023,0.008,0.032,0.016,0.055,0.016c-0.023,0.024-0.039,0.04-0.063,0.063  c0,0.008,0.008,0.008,0.016,0.016c0,0,0,0,0,0.009h0.008c0.016-0.009,0.023-0.024,0.032-0.032v-0.008l0.016-0.008  c0,0-0.009,0.008-0.009,0.016c-0.016,0.008-0.023,0.023-0.039,0.04c0.007,0.008,0.016,0.016,0.016,0.024c0,0,0.15,0.008,0.15,0.024  v0.055c-0.023,0-0.048,0.008-0.071,0.008c-0.111,0.079-0.325,0.206-0.34,0.277c-0.008-0.032-0.016-0.063-0.024-0.095  c-0.008,0.008-0.024,0.023-0.032,0.032v0.008C39.149,22.418,39.133,22.426,39.125,22.442z M39.149,22.672v0.071h-0.024  C39.133,22.719,39.141,22.695,39.149,22.672z M13.249,41.898c2.533,0.071,5.034,0.301,7.583,0.657  c-0.111-0.016-0.206-0.032-0.277-0.047c0.103,0.016,0.238,0.04,0.372,0.055c0.016,0.008,0.023,0.008,0.04,0.008  c0.056,0.008,0.119,0.016,0.19,0.032c0.032,0,0.063,0.195,0.103,0.202c0.023,0,0.048,0.195,0.063,0.195h0.032  c0.008,0,0.016-0.187,0.016-0.179c0.023,0,0.048-0.085,0.063-0.085c0.016,0,0.032-0.047,0.047-0.04  c0.04,0.008,0.063-0.014,0.063-0.014c6.103,0.902,12.261,1.579,18.253,3.083c2.873,0.72,5.85,1.569,8.493,2.931  c2.612,1.354,5.098,3.101,7.543,4.731C45.085,55.358,28.115,54.872,13.249,41.898z M59.539,55.758V55.75h0.08L59.539,55.758z   M59.625,55.75l-0.007-0.04c0,0,0,0,0.007,0c0,0,0,0,0.009,0C59.625,55.719,59.625,55.734,59.625,55.75z M59.618,55.632H59.61  c-0.008,0-0.024,0.008-0.04,0.008c-0.023,0.008-0.039,0.016-0.063,0.016c-0.071,0.023-0.143,0.047-0.198,0.016  c0.104-0.008,0.214-0.04,0.301-0.08c0.008,0,0.008-0.007,0.015-0.007l0.009,0.047C59.625,55.632,59.625,55.632,59.618,55.632z   M77.721,40.275c0.388,0.443,0.76,0.887,1.132,1.338c-1.037,1.005-2.303,1.741-3.309,2.786c-0.72,0.752-1.33,1.623-1.963,2.446  c-1.773,2.351-3.483,4.749-5.383,6.989c-0.609,0.72-1.187,1.583-2.216,1.583c-1.037,0-2.065-0.387-3-0.792  c-2.58-1.1-4.971-2.659-7.314-4.195c-2.248-1.473-4.432-3.221-6.862-4.393c-2.826-1.369-5.913-2.28-8.945-3.032  c-6.316-1.559-12.76-2.232-19.187-3.087c-2.509-0.333-5.05-0.491-7.583-0.538c-1.077-0.024-2.169-0.064-3.238,0.086  c-1.251,0.175-2.446,0.625-3.697,0.8c-0.031-1.766,0.982-3.183,1.899-4.591c0.666-1.021,1.069-2.288,1.86-3.206  c1.956-2.24,5.138-3.301,7.812-4.378c3.159-1.274,5.945-3.142,9.317-3.886c1.932-0.427,3.894-0.562,5.865-0.76  c2.074-0.214,4.101-0.705,6.198-0.705c-1.536,1.512-2.778,2.92-3.499,4.962C35.23,28.75,33.838,33,35.951,33h0.032  c1.298,0,0.997-1.63,1.1-2.422c0.167-1.314,0.618-2.374,1.275-3.521c1.14-2.011,2.857-3.61,4.836-4.79  c1.789,0.135,3.625,0.496,5.43,0.907c-2.723,1.971-4.274,5.067-5.113,8.25c-0.34,1.298-0.57,2.633-0.768,3.963  c-0.08,0.483-0.23,1.059-0.12,1.55c0.167,0.776,1.045,1.372,1.694,0.684c0.681-0.712,0.602-2.397,0.76-3.307  c0.245-1.377,0.578-2.738,1.092-4.036c1.148-2.881,3.27-5.112,6.246-6.102c1.694,0.475,3.396,0.958,5.034,1.599  c-2.493,1.686-4.171,4.48-5.327,7.195c-0.578,1.362-1.045,2.77-1.354,4.219c-0.134,0.617-0.372,1.385-0.229,2.027  c0.15,0.657,0.831,1.258,1.496,0.831c0.594-0.388,0.586-1.156,0.705-1.773c0.127-0.665,0.293-1.314,0.491-1.956  c0.458-1.464,1.076-2.889,1.844-4.21c1.219-2.105,3.19-4.718,5.865-4.836c1.654,0.792,3.293,1.709,4.9,2.723  c-2.833,1.148-4.496,3.625-5.81,6.261c-0.76,1.528-1.433,3.095-2.193,4.623c-0.348,0.712-0.902,1.44-0.696,2.28  c0.19,0.775,1.092,1.33,1.717,0.625c0.546-0.618,0.871-1.607,1.227-2.351c0.356-0.736,0.697-1.48,1.045-2.225  c0.609-1.297,1.219-2.612,2.042-3.783c0.649-0.926,1.448-1.733,2.438-2.288c0.531-0.301,1.108-0.522,1.694-0.696  c0.427-0.119,1.258-0.103,1.503-0.349c3.175,2.327,6.159,5.05,8.842,8.098c0.008,0.008,0.016,0.024,0.032,0.04l0.008,0.008  C77.697,40.252,77.705,40.259,77.721,40.275z M89.824,29.755c0,0-0.008,0-0.024,0.016c-0.008,0.008-0.016,0.016-0.024,0.016  c-0.016,0.016-0.047,0.047-0.095,0.079c-0.031,0.024-0.055,0.047-0.079,0.063c-0.476,0.396-0.863,0.902-1.37,1.251  c-0.649,0.443-1.425,0.751-2.121,1.124c-1.195,0.649-2.375,1.322-3.515,2.058c-1.433,0.926-2.889,1.939-4.013,3.237  c-2.264-2.525-4.733-4.829-7.337-6.871c1.669-2.501,2.415-5.549,4.092-8.058c0.625-0.942,1.401-1.789,2.367-2.383  c0.514-0.317,1.068-0.562,1.638-0.744c0.452-0.143,1.504-0.167,1.773-0.435c3.657,2.691,7.069,5.905,10.045,9.538  C90.758,29.036,90.298,29.384,89.824,29.755z"></path><path d="M39.394,22.133c-0.008,0.008-0.024,0.016-0.04,0.023c-0.016,0.008-0.023,0.016-0.032,0.04c0,0-0.008,0-0.008,0.008  c-0.008,0-0.008,0.008-0.008,0.008c-0.023,0.023-0.031,0.055-0.047,0.079c0.024-0.032,0.056-0.063,0.087-0.095  c0.016-0.016,0.04-0.04,0.056-0.055v-0.008C39.394,22.133,39.394,22.133,39.394,22.133z M59.579,55.917c0-0.047,0-0.095-0.008-0.095  c-0.007,0-0.016-0.008-0.032-0.016l-0.118-0.118v0.023c0,0.023-0.087,0-0.182,0.023c0.063,0.032,0.126,0.063,0.182,0.103  l0.095,0.047c0.008,0,0.008,0,0.008,0.008c0.015,0,0.023,0.008,0.04,0.016h0.007v0.008H59.579z M59.586,55.924l-0.008-0.008v0.008  l0.008,0.016c-0.008,0.008,0,0.008,0,0.008v0.008c0,0.008,0.008,0.024,0.008,0.032c0.008,0,0.008,0,0.016,0h0.024v-0.04  C59.618,55.94,59.602,55.933,59.586,55.924z M59.625,55.584c-0.007,0-0.007,0.007-0.015,0.007V55.6c0,0.008,0.008,0.016,0.008,0.032  c0.007,0,0.007,0,0.016,0L59.625,55.584z M59.539,55.75v0.008l0.08-0.008H59.539z"></path><path d="M59.618,55.964v0.007l0.007,0.016h0.009v-0.016C59.625,55.972,59.625,55.972,59.618,55.964z M59.586,55.94  c-0.008,0.008,0,0.008,0,0.008c0.008,0.008,0.008,0.008,0.024,0.016L59.586,55.94z M59.539,55.806l-0.007-0.023l-0.008-0.016  c-0.008,0-0.024,0-0.032-0.008c-0.016,0-0.023,0-0.039-0.008h-0.008l0.063,0.079l0.063,0.072L59.539,55.806z M59.428,55.734  l-0.007-0.008v0.024c0,0,0,0,0.007,0h0.008L59.428,55.734z M39.449,21.959h-0.008c-0.008-0.008-0.016-0.008-0.024-0.008H39.41  c0,0.016,0,0.032-0.008,0.047h-0.008c0.008,0.016,0,0.032-0.008,0.04c0.008,0.016-0.008,0.04-0.024,0.056  c-0.016,0.016-0.031,0.032-0.031,0.048c0.007-0.008,0.016-0.016,0.023-0.016c0.008-0.016,0.016-0.024,0.024-0.032  c0,0,0.008,0,0.008-0.008c0.008-0.007,0.016-0.016,0.024-0.016c0.007-0.016,0.023-0.023,0.031-0.032  c0.024-0.023,0.04-0.04,0.063-0.063C39.481,21.975,39.473,21.967,39.449,21.959z M39.251,22.292V22.3c0,0.008,0,0.008-0.008,0.016  c0.008-0.008,0.008-0.008,0.016-0.016v-0.008H39.251z M39.458,22.062c-0.04,0.031-0.047,0.055-0.063,0.071  c-0.008,0.008-0.024,0.016-0.04,0.023c-0.016,0.008-0.023,0.016-0.032,0.04c0,0-0.008,0-0.008,0.008  c-0.008,0-0.008,0.008-0.008,0.008c-0.016,0-0.023,0.008-0.031,0.023c0,0,0,0,0,0.008c-0.016,0.016-0.024,0.032-0.024,0.047h0.008  c0.024-0.032,0.056-0.063,0.087-0.095c0.016-0.016,0.04-0.04,0.056-0.055v-0.008c0-0.008,0.008-0.008,0.015-0.008  c0,0,0.024-0.032,0.048-0.056c0,0,0,0,0-0.007H39.458z"></path>
      </symbol>
    </defs>
  </svg>
